<?xml version="1.0" standalone="no"?>
<!DOCTYPE svg PUBLIC "-//W3C//DTD SVG 1.1//EN" "http://www.w3.org/Graphics/SVG/1.1/DTD/svg11.dtd">
<svg xmlns="http://www.w3.org/2000/svg" xmlns:xlink="http://www.w3.org/1999/xlink" xmlns:serif="http://www.serif.com/" width="200" height="200" viewBox="0 0 200 200" version="1.1" xml:space="preserve" style="fill-rule:evenodd;clip-rule:evenodd;stroke-linejoin:round;stroke-miterlimit:2;">
    <g id="Baum" transform="matrix(0.079439,0,0,0.081276,-19.710222,29.909174)">
        <path d="M1915.761,690.83C2047.997,734.639 2180.988,643.723 2225.741,520.392C2230.029,508.56 2245.342,469.429 2234.79,461.51C2223.821,453.29 2146.1,450.35 2129.132,451.682C1961.831,464.851 1942.069,594.789 1837.879,682.771C1774.56,736.241 1690.308,762.75 1623.269,811.07L1564.909,866.31C1560.372,735.721 1668.631,647.437 1737.97,550.959C1798.011,467.421 1845.283,360.23 1938.51,308.908C1942.022,306.978 1946.252,305.958 1951.612,306.062C1911.802,337.769 1875.488,382.519 1847.052,424.788C1837.629,438.789 1786.028,520.917 1796.148,531.349C1895.51,524.591 2002.838,457.832 2033.392,359.928C2039.37,340.781 2058.352,222.602 2048.991,215.911C2023.542,197.731 1936.012,225.432 1908.269,238.788C1794.592,293.512 1781.001,362.571 1731.763,465.012C1699.57,531.979 1622.109,610.231 1572.938,669.04C1565.882,677.49 1547.15,691.049 1543.68,701.428L1542.879,694.909C1534.85,607.729 1535.303,507.91 1581.601,430.47C1631.74,346.619 1734.411,315.328 1782.24,228.382C1819.069,161.431 1830.469,74.312 1807.902,1.117C1706.881,18.292 1620.402,69.88 1582.861,168.538C1562.651,221.639 1571.83,268.71 1564.831,321.973C1558.332,371.411 1531.509,399.002 1507.012,439.679C1501.44,440.948 1500.409,436.208 1497.719,433.019C1426.07,347.961 1458.19,287.487 1433.792,193.913C1410.502,104.62 1332.588,31.721 1243.601,9.291C1205.42,-0.329 1194.758,-3.482 1190.112,42.939C1179.788,146.097 1220.14,246.499 1299.62,312.139C1332.812,339.548 1371.581,355.042 1401.271,389.918C1424.931,417.722 1464.392,489.981 1469.169,525.382C1476.24,577.749 1465.261,648.239 1470.522,702.261C1465.089,698.921 1461.203,695.97 1457.191,692.88C1418,662.838 1289.38,499.7 1269.108,454.309C1260.221,434.398 1256.339,411.89 1247.821,391.858C1199.961,279.371 1086.03,206.55 962.801,212.362L964.69,313.892C966.782,340.23 981.148,374.928 984.811,383.742C1014.47,455.1 1123.499,527.109 1200.138,531.282C1206.601,531.63 1215.561,534.83 1213.568,525.86C1196.309,448.102 1116.969,370.552 1066.471,312.082C1120.2,336.832 1165.068,388.929 1198.931,436.77C1224.979,473.581 1245.75,514.242 1272.162,550.949C1342.672,648.972 1437.783,716.179 1445.421,848.209C1445.718,853.448 1448.959,868.563 1439.328,866.278L1386.848,811.08C1327.53,765.071 1245.922,741.309 1188.171,694.758C1114.721,635.559 1081.472,544.159 997.382,494.788C927.84,453.961 853.928,446.141 775.478,463.659C781.248,538.191 825.419,611.662 885.73,654.3C939.891,692.599 1023.638,721.949 1086.389,688.889C1044.019,658.712 1000.92,628.28 960.84,595.143C956.62,591.651 951.911,588.452 947.55,584.789C924.063,565.08 893.66,540.73 873.05,519.429C868.559,514.799 872.613,514.518 877.098,515.382C924.391,524.44 1046.98,621.719 1086.462,656.922C1111.579,679.311 1133.318,706.002 1158.148,728.77C1090.599,756.049 1015.932,746.408 948.123,773.89C861.42,809.02 794.402,913.568 791.332,1005.899C867.3,1011.399 938.569,1006.31 1005.338,966.68C1057.423,935.769 1093.018,888.62 1110.309,830.451C1022.613,836.2 939.241,878.131 873.039,934.068L867.128,932.132C894.17,896.398 930.119,868.958 968.098,845.701C1097.249,766.6 1271.2,761.351 1373.402,888.339C1452.321,986.399 1462.259,1191.389 1354.853,1272.342C1281.003,1327.998 1179.788,1291.921 1094.252,1310.781C1023.633,1326.349 967.39,1388.342 891.058,1380.719C882.822,1387.358 914.91,1398.149 918.719,1398.888C987.532,1412.218 1025.87,1368.29 1086.379,1354.741C1118.249,1347.597 1149.812,1345.6 1182.109,1352.832C1170.532,1366.318 1153.491,1372.79 1140.16,1384.601C1101.032,1419.242 1075.681,1472.999 1024.122,1495.84L974.81,1512.239C1008.012,1527.479 1045.101,1520.241 1078.413,1508.301C1088.471,1522.349 1056.491,1571.09 1054.462,1586.048C1053.302,1594.581 1058.292,1593.083 1063.641,1591.189C1100.829,1578.072 1117.13,1498.909 1137.491,1465.663C1184.159,1389.439 1295.52,1354.392 1377.471,1332.868C1366.659,1376.302 1346.038,1415.548 1311.619,1444.419C1259.05,1488.509 1225.879,1493.831 1190.658,1562.708C1176.068,1591.241 1163.081,1627.36 1164.163,1659.821C1192.739,1637.469 1205.128,1602.698 1226.66,1574.789C1235.703,1563.062 1296.389,1498.093 1309.709,1508.358C1289.999,1560.08 1313.57,1623.681 1294.5,1674.54L1275.799,1711.658C1355.81,1681.33 1329.721,1587.64 1351.762,1520.46C1366.492,1475.559 1403.831,1433.43 1426.028,1391.37L1453.21,1332.899C1481.693,1398.461 1476.11,1468.982 1460.063,1537.052C1445.681,1598.02 1399.84,1677.63 1469.169,1723.64C1450.999,1665.05 1461.442,1602.38 1503.099,1556.241C1534.829,1588.01 1550.97,1633 1549.122,1677.989C1548.462,1693.89 1542.462,1708.099 1542.962,1723.63C1605.989,1669.79 1560.372,1600.049 1546.833,1536.381C1532.019,1466.76 1532.732,1392.801 1554.929,1324.918C1573.968,1353.409 1582.652,1386.552 1598.72,1416.698C1628.171,1471.943 1657.59,1495.09 1668.038,1562.703C1676.78,1619.201 1663.428,1690.612 1736.363,1707.672C1693.659,1669.212 1715.81,1618.988 1712.589,1569.992C1711.038,1546.423 1702.271,1523.852 1700.512,1500.361C1717.782,1515.668 1752.113,1534.071 1766.88,1549.57C1782.62,1566.1 1829.298,1650.461 1842.083,1655.83C1850.059,1659.181 1847.921,1650.939 1847.598,1646.34C1843.711,1589.909 1797.23,1515.819 1754.21,1480.501C1735.051,1464.768 1709.279,1453.29 1690.631,1436.422C1659.729,1408.461 1646.013,1371.38 1632.692,1332.91C1718.843,1353.191 1824.792,1389.59 1873.578,1468.779C1899.08,1510.158 1898.57,1567.099 1949.692,1588.051L1927.739,1508.368C1963.782,1517.198 1999.581,1529.492 2035.359,1512.271L1986.718,1495.2C1920.912,1464.648 1891.941,1391.979 1829.98,1356.833C1826.072,1354.621 1833.57,1348.831 1834.033,1348.831L1905.802,1348.831C1937.459,1348.831 2002.271,1391.62 2041.8,1396.25C2066.339,1399.133 2104.63,1399.918 2119.121,1376.781C2038.153,1379.84 1979.122,1319.153 1900.719,1306.062C1810.759,1291.031 1724.52,1327.66 1644.982,1266.739C1565.643,1205.968 1564.68,1022.851 1605.479,940.831C1707.021,736.741 1981.203,752.932 2121.15,906.169C2125.953,911.43 2139.783,926.331 2137.072,934.109C2072.479,880.41 1985.922,830.472 1899.803,830.472C1915.501,900.363 1975.922,946.513 2036.68,982.668C2049.532,990.322 2087.163,1007.46 2105.161,1005.899L2216.761,1005.899C2237.199,997.419 2207.01,926.742 2202.374,916.669C2183.413,875.55 2126.78,810.31 2087.293,788.52C2016.049,749.212 1931.813,755.31 1855.97,730.721C1891.842,691.72 1929.191,653.41 1969.709,619.232C1999.701,593.941 2070.319,538.41 2105.239,527.463C2107.284,526.823 2111.743,526.37 2111.118,529.383L1915.772,690.851L1915.761,690.83ZM1718.328,108.642C1722.001,104.75 1743.871,80.358 1748.288,84.812L1620.74,292.102C1620.558,222.399 1672.591,157.123 1718.328,108.642ZM1256.568,82.731C1264.852,84.271 1267.339,89 1271.829,92.741C1285.722,104.318 1315.698,137.721 1327.692,152.508C1360.779,193.361 1389.559,241.571 1389.397,296.088L1256.568,82.731Z" style="fill:white;fill-rule:nonzero;"/>
    </g>
</svg>