<?xml version="1.0" standalone="no"?>
<!DOCTYPE svg PUBLIC "-//W3C//DTD SVG 1.1//EN" "http://www.w3.org/Graphics/SVG/1.1/DTD/svg11.dtd">
<svg xmlns="http://www.w3.org/2000/svg" xmlns:xlink="http://www.w3.org/1999/xlink" xmlns:serif="http://www.serif.com/" width="2966" height="2830" viewBox="0 0 2966 2830" version="1.1" xml:space="preserve" style="fill-rule:evenodd;clip-rule:evenodd;stroke-linejoin:round;stroke-miterlimit:2;">
    <g id="Baum" transform="matrix(0.915987,0,0,0.916047,99.054971,148.976321)">
        <path d="M1915.761,690.83C2047.997,734.639 2180.988,643.723 2225.741,520.392C2230.029,508.56 2245.342,469.429 2234.79,461.51C2223.821,453.29 2146.1,450.35 2129.132,451.682C1961.831,464.851 1942.069,594.789 1837.879,682.771C1774.56,736.241 1690.308,762.75 1623.269,811.07L1564.909,866.31C1560.372,735.721 1668.631,647.437 1737.97,550.959C1798.011,467.421 1845.283,360.23 1938.51,308.908C1942.022,306.978 1946.252,305.958 1951.612,306.062C1911.802,337.769 1875.488,382.519 1847.052,424.788C1837.629,438.789 1786.028,520.917 1796.148,531.349C1895.51,524.591 2002.838,457.832 2033.392,359.928C2039.37,340.781 2058.352,222.602 2048.991,215.911C2023.542,197.731 1936.012,225.432 1908.269,238.788C1794.592,293.512 1781.001,362.571 1731.763,465.012C1699.57,531.979 1622.109,610.231 1572.938,669.04C1565.882,677.49 1547.15,691.049 1543.68,701.428L1542.879,694.909C1534.85,607.729 1535.303,507.91 1581.601,430.47C1631.74,346.619 1734.411,315.328 1782.24,228.382C1819.069,161.431 1830.469,74.312 1807.902,1.117C1706.881,18.292 1620.402,69.88 1582.861,168.538C1562.651,221.639 1571.83,268.71 1564.831,321.973C1558.332,371.411 1531.509,399.002 1507.012,439.679C1501.44,440.948 1500.409,436.208 1497.719,433.019C1426.07,347.961 1458.19,287.487 1433.792,193.913C1410.502,104.62 1332.588,31.721 1243.601,9.291C1205.42,-0.329 1194.758,-3.482 1190.112,42.939C1179.788,146.097 1220.14,246.499 1299.62,312.139C1332.812,339.548 1371.581,355.042 1401.271,389.918C1424.931,417.722 1464.392,489.981 1469.169,525.382C1476.24,577.749 1465.261,648.239 1470.522,702.261C1465.089,698.921 1461.203,695.97 1457.191,692.88C1418,662.838 1289.38,499.7 1269.108,454.309C1260.221,434.398 1256.339,411.89 1247.821,391.858C1199.961,279.371 1086.03,206.55 962.801,212.362L964.69,313.892C966.782,340.23 981.148,374.928 984.811,383.742C1014.47,455.1 1123.499,527.109 1200.138,531.282C1206.601,531.63 1215.561,534.83 1213.568,525.86C1196.309,448.102 1116.969,370.552 1066.471,312.082C1120.2,336.832 1165.068,388.929 1198.931,436.77C1224.979,473.581 1245.75,514.242 1272.162,550.949C1342.672,648.972 1437.783,716.179 1445.421,848.209C1445.718,853.448 1448.959,868.563 1439.328,866.278L1386.848,811.08C1327.53,765.071 1245.922,741.309 1188.171,694.758C1114.721,635.559 1081.472,544.159 997.382,494.788C927.84,453.961 853.928,446.141 775.478,463.659C781.248,538.191 825.419,611.662 885.73,654.3C939.891,692.599 1023.638,721.949 1086.389,688.889C1044.019,658.712 1000.92,628.28 960.84,595.143C956.62,591.651 951.911,588.452 947.55,584.789C924.063,565.08 893.66,540.73 873.05,519.429C868.559,514.799 872.613,514.518 877.098,515.382C924.391,524.44 1046.98,621.719 1086.462,656.922C1111.579,679.311 1133.318,706.002 1158.148,728.77C1090.599,756.049 1015.932,746.408 948.123,773.89C861.42,809.02 794.402,913.568 791.332,1005.899C867.3,1011.399 938.569,1006.31 1005.338,966.68C1057.423,935.769 1093.018,888.62 1110.309,830.451C1022.613,836.2 939.241,878.131 873.039,934.068L867.128,932.132C894.17,896.398 930.119,868.958 968.098,845.701C1097.249,766.6 1271.2,761.351 1373.402,888.339C1452.321,986.399 1462.259,1191.389 1354.853,1272.342C1281.003,1327.998 1179.788,1291.921 1094.252,1310.781C1023.633,1326.349 967.39,1388.342 891.058,1380.719C882.822,1387.358 914.91,1398.149 918.719,1398.888C987.532,1412.218 1025.87,1368.29 1086.379,1354.741C1118.249,1347.597 1149.812,1345.6 1182.109,1352.832C1170.532,1366.318 1153.491,1372.79 1140.16,1384.601C1101.032,1419.242 1075.681,1472.999 1024.122,1495.84L974.81,1512.239C1008.012,1527.479 1045.101,1520.241 1078.413,1508.301C1088.471,1522.349 1056.491,1571.09 1054.462,1586.048C1053.302,1594.581 1058.292,1593.083 1063.641,1591.189C1100.829,1578.072 1117.13,1498.909 1137.491,1465.663C1184.159,1389.439 1295.52,1354.392 1377.471,1332.868C1366.659,1376.302 1346.038,1415.548 1311.619,1444.419C1259.05,1488.509 1225.879,1493.831 1190.658,1562.708C1176.068,1591.241 1163.081,1627.36 1164.163,1659.821C1192.739,1637.469 1205.128,1602.698 1226.66,1574.789C1235.703,1563.062 1296.389,1498.093 1309.709,1508.358C1289.999,1560.08 1313.57,1623.681 1294.5,1674.54L1275.799,1711.658C1355.81,1681.33 1329.721,1587.64 1351.762,1520.46C1366.492,1475.559 1403.831,1433.43 1426.028,1391.37L1453.21,1332.899C1481.693,1398.461 1476.11,1468.982 1460.063,1537.052C1445.681,1598.02 1399.84,1677.63 1469.169,1723.64C1450.999,1665.05 1461.442,1602.38 1503.099,1556.241C1534.829,1588.01 1550.97,1633 1549.122,1677.989C1548.462,1693.89 1542.462,1708.099 1542.962,1723.63C1605.989,1669.79 1560.372,1600.049 1546.833,1536.381C1532.019,1466.76 1532.732,1392.801 1554.929,1324.918C1573.968,1353.409 1582.652,1386.552 1598.72,1416.698C1628.171,1471.943 1657.59,1495.09 1668.038,1562.703C1676.78,1619.201 1663.428,1690.612 1736.363,1707.672C1693.659,1669.212 1715.81,1618.988 1712.589,1569.992C1711.038,1546.423 1702.271,1523.852 1700.512,1500.361C1717.782,1515.668 1752.113,1534.071 1766.88,1549.57C1782.62,1566.1 1829.298,1650.461 1842.083,1655.83C1850.059,1659.181 1847.921,1650.939 1847.598,1646.34C1843.711,1589.909 1797.23,1515.819 1754.21,1480.501C1735.051,1464.768 1709.279,1453.29 1690.631,1436.422C1659.729,1408.461 1646.013,1371.38 1632.692,1332.91C1718.843,1353.191 1824.792,1389.59 1873.578,1468.779C1899.08,1510.158 1898.57,1567.099 1949.692,1588.051L1927.739,1508.368C1963.782,1517.198 1999.581,1529.492 2035.359,1512.271L1986.718,1495.2C1920.912,1464.648 1891.941,1391.979 1829.98,1356.833C1826.072,1354.621 1833.57,1348.831 1834.033,1348.831L1905.802,1348.831C1937.459,1348.831 2002.271,1391.62 2041.8,1396.25C2066.339,1399.133 2104.63,1399.918 2119.121,1376.781C2038.153,1379.84 1979.122,1319.153 1900.719,1306.062C1810.759,1291.031 1724.52,1327.66 1644.982,1266.739C1565.643,1205.968 1564.68,1022.851 1605.479,940.831C1707.021,736.741 1981.203,752.932 2121.15,906.169C2125.953,911.43 2139.783,926.331 2137.072,934.109C2072.479,880.41 1985.922,830.472 1899.803,830.472C1915.501,900.363 1975.922,946.513 2036.68,982.668C2049.532,990.322 2087.163,1007.46 2105.161,1005.899L2216.761,1005.899C2237.199,997.419 2207.01,926.742 2202.374,916.669C2183.413,875.55 2126.78,810.31 2087.293,788.52C2016.049,749.212 1931.813,755.31 1855.97,730.721C1891.842,691.72 1929.191,653.41 1969.709,619.232C1999.701,593.941 2070.319,538.41 2105.239,527.463C2107.284,526.823 2111.743,526.37 2111.118,529.383L1915.772,690.851L1915.761,690.83ZM1718.328,108.642C1722.001,104.75 1743.871,80.358 1748.288,84.812L1620.74,292.102C1620.558,222.399 1672.591,157.123 1718.328,108.642ZM1256.568,82.731C1264.852,84.271 1267.339,89 1271.829,92.741C1285.722,104.318 1315.698,137.721 1327.692,152.508C1360.779,193.361 1389.559,241.571 1389.397,296.088L1256.568,82.731Z" style="fill:white;fill-rule:nonzero;"/>
    </g>
    <g transform="matrix(1.443757,0,0,1.397115,-238.58318,-52.393535)">
        <path d="M1093.487,1358.356C1093.795,1358.356 1093.949,1358.674 1093.949,1359.31C1093.949,1359.947 1093.795,1360.265 1093.487,1360.265C1089.691,1360.265 1086.125,1361.961 1082.79,1365.354C1079.456,1368.747 1076.762,1373.307 1074.71,1379.032L1046.237,1457.602C1046.134,1458.026 1045.595,1458.238 1044.621,1458.238C1043.646,1458.238 1043.056,1458.026 1042.851,1457.602L1003.604,1371.557C1001.86,1367.846 1000.064,1365.036 998.217,1363.128C996.37,1361.219 994.267,1360.265 991.907,1360.265C991.599,1360.265 991.445,1359.947 991.445,1359.31C991.445,1358.674 991.599,1358.356 991.907,1358.356C993.138,1358.356 994.087,1358.409 994.754,1358.515C995.421,1358.621 996.344,1358.701 997.524,1358.754C998.704,1358.807 1000.577,1358.833 1003.142,1358.833C1008.888,1358.833 1013.557,1358.807 1017.148,1358.754C1020.739,1358.701 1023.663,1358.621 1025.921,1358.515C1028.178,1358.409 1030.128,1358.356 1031.769,1358.356C1032.077,1358.356 1032.231,1358.674 1032.231,1359.31C1032.231,1359.947 1032.077,1360.265 1031.769,1360.265C1027.357,1360.265 1024.433,1361.537 1022.996,1364.082C1021.56,1366.627 1021.816,1370.073 1023.766,1374.42L1051.778,1436.13L1044.544,1449.172L1070.401,1378.555C1072.247,1373.36 1072.376,1369.012 1070.785,1365.513C1069.195,1362.014 1065.886,1360.265 1060.858,1360.265C1060.55,1360.265 1060.396,1359.947 1060.396,1359.31C1060.396,1358.674 1060.55,1358.356 1060.858,1358.356C1063.834,1358.356 1066.655,1358.436 1069.323,1358.595C1071.991,1358.754 1075.531,1358.833 1079.943,1358.833C1082.816,1358.833 1085.15,1358.754 1086.946,1358.595C1088.741,1358.436 1090.922,1358.356 1093.487,1358.356Z" style="fill:white;fill-rule:nonzero;"/>
        <path d="M1117.189,1459.669C1110.52,1459.669 1104.851,1458.238 1100.182,1455.375C1095.513,1452.512 1091.974,1448.722 1089.562,1444.003C1087.151,1439.285 1085.945,1434.222 1085.945,1428.814C1085.945,1422.558 1087.433,1416.886 1090.409,1411.796C1093.384,1406.707 1097.489,1402.624 1102.722,1399.549C1107.955,1396.475 1113.957,1394.937 1120.729,1394.937C1126.783,1394.937 1131.631,1396.368 1135.273,1399.231C1138.916,1402.094 1140.737,1406.76 1140.737,1413.228C1140.737,1414.606 1140.635,1415.772 1140.429,1416.727C1140.224,1417.681 1139.763,1418.158 1139.044,1418.158L1124.269,1418.158C1124.474,1412.114 1123.91,1407.263 1122.576,1403.605C1121.242,1399.947 1118.677,1398.118 1114.88,1398.118C1110.776,1398.118 1107.518,1400.292 1105.107,1404.639C1102.696,1408.986 1101.49,1414.765 1101.49,1421.975C1101.49,1428.125 1102.414,1433.427 1104.261,1437.88C1106.108,1442.333 1108.827,1445.779 1112.418,1448.218C1116.009,1450.657 1120.421,1451.876 1125.654,1451.876C1128.732,1451.876 1131.323,1451.479 1133.427,1450.683C1135.53,1449.888 1137.864,1448.801 1140.429,1447.423C1140.635,1447.211 1140.917,1447.317 1141.276,1447.741C1141.635,1448.165 1141.712,1448.536 1141.507,1448.854C1137.71,1452.777 1133.837,1455.561 1129.887,1457.204C1125.936,1458.848 1121.704,1459.669 1117.189,1459.669ZM1096.103,1418.317L1095.95,1415.295L1129.656,1414.659L1129.656,1418.158L1096.103,1418.317Z" style="fill:white;fill-rule:nonzero;"/>
        <path d="M1170.134,1414.659L1168.903,1412.591C1172.904,1407.82 1176.29,1404.162 1179.061,1401.617C1181.831,1399.072 1184.191,1397.296 1186.141,1396.289C1188.09,1395.282 1189.834,1394.778 1191.374,1394.778C1193.528,1394.778 1195.76,1395.6 1198.069,1397.243C1200.377,1398.887 1201.532,1401.034 1201.532,1403.685C1201.532,1405.911 1200.89,1407.74 1199.608,1409.172C1198.325,1410.603 1196.555,1411.319 1194.298,1411.319C1192.143,1411.319 1190.527,1410.736 1189.45,1409.569C1188.372,1408.403 1187.398,1407.263 1186.525,1406.15C1185.653,1405.037 1184.396,1404.48 1182.755,1404.48C1182.036,1404.48 1181.241,1404.718 1180.369,1405.196C1179.497,1405.673 1178.266,1406.627 1176.675,1408.059C1175.085,1409.49 1172.904,1411.69 1170.134,1414.659ZM1151.357,1457.761C1151.049,1457.761 1150.895,1457.443 1150.895,1456.807C1150.895,1456.17 1151.049,1455.852 1151.357,1455.852C1154.538,1455.852 1156.693,1455.084 1157.821,1453.546C1158.95,1452.009 1159.514,1449.119 1159.514,1444.878L1159.514,1414.977C1159.514,1411.69 1159.155,1409.278 1158.437,1407.74C1157.719,1406.203 1156.487,1405.434 1154.743,1405.434C1153.82,1405.434 1152.742,1405.62 1151.511,1405.991C1150.28,1406.362 1148.894,1406.919 1147.355,1407.661C1146.945,1407.873 1146.637,1407.661 1146.432,1407.025C1146.227,1406.389 1146.227,1406.017 1146.432,1405.911L1167.825,1395.096C1168.441,1394.884 1168.8,1394.778 1168.903,1394.778C1170.031,1394.778 1171.16,1396.05 1172.289,1398.595C1173.417,1401.14 1173.982,1404.798 1173.982,1409.569L1173.982,1444.878C1173.982,1447.635 1174.392,1449.835 1175.213,1451.479C1176.034,1453.122 1177.445,1454.262 1179.446,1454.898C1181.446,1455.534 1184.191,1455.852 1187.68,1455.852C1188.09,1455.852 1188.295,1456.17 1188.295,1456.807C1188.295,1457.443 1188.09,1457.761 1187.68,1457.761C1184.909,1457.761 1181.754,1457.708 1178.214,1457.602C1174.674,1457.496 1170.852,1457.443 1166.748,1457.443C1163.875,1457.443 1161.105,1457.496 1158.437,1457.602C1155.769,1457.708 1153.409,1457.761 1151.357,1457.761Z" style="fill:white;fill-rule:nonzero;"/>
        <path d="M1238.008,1459.669C1231.339,1459.669 1225.67,1458.238 1221.001,1455.375C1216.333,1452.512 1212.793,1448.722 1210.381,1444.003C1207.97,1439.285 1206.764,1434.222 1206.764,1428.814C1206.764,1422.558 1208.252,1416.886 1211.228,1411.796C1214.203,1406.707 1218.308,1402.624 1223.541,1399.549C1228.774,1396.475 1234.776,1394.937 1241.548,1394.937C1247.602,1394.937 1252.45,1396.368 1256.093,1399.231C1259.735,1402.094 1261.556,1406.76 1261.556,1413.228C1261.556,1414.606 1261.454,1415.772 1261.248,1416.727C1261.043,1417.681 1260.582,1418.158 1259.863,1418.158L1245.088,1418.158C1245.293,1412.114 1244.729,1407.263 1243.395,1403.605C1242.061,1399.947 1239.496,1398.118 1235.699,1398.118C1231.595,1398.118 1228.337,1400.292 1225.926,1404.639C1223.515,1408.986 1222.309,1414.765 1222.309,1421.975C1222.309,1428.125 1223.233,1433.427 1225.08,1437.88C1226.927,1442.333 1229.646,1445.779 1233.237,1448.218C1236.828,1450.657 1241.24,1451.876 1246.473,1451.876C1249.551,1451.876 1252.142,1451.479 1254.246,1450.683C1256.349,1449.888 1258.683,1448.801 1261.248,1447.423C1261.454,1447.211 1261.736,1447.317 1262.095,1447.741C1262.454,1448.165 1262.531,1448.536 1262.326,1448.854C1258.529,1452.777 1254.656,1455.561 1250.706,1457.204C1246.755,1458.848 1242.523,1459.669 1238.008,1459.669ZM1216.923,1418.317L1216.769,1415.295L1250.475,1414.659L1250.475,1418.158L1216.923,1418.317Z" style="fill:white;fill-rule:nonzero;"/>
        <path d="M1272.176,1457.761C1271.868,1457.761 1271.714,1457.443 1271.714,1456.807C1271.714,1456.17 1271.868,1455.852 1272.176,1455.852C1275.357,1455.852 1277.512,1455.084 1278.64,1453.546C1279.769,1452.009 1280.333,1449.119 1280.333,1444.878L1280.333,1416.409C1280.333,1412.909 1280,1410.338 1279.333,1408.695C1278.666,1407.051 1277.46,1406.229 1275.716,1406.229C1274.998,1406.229 1274.151,1406.389 1273.176,1406.707C1272.202,1407.025 1271.15,1407.449 1270.021,1407.979C1269.611,1408.085 1269.277,1407.82 1269.021,1407.184C1268.764,1406.548 1268.79,1406.176 1269.098,1406.07L1292.338,1394.937C1292.543,1394.831 1292.697,1394.778 1292.8,1394.778C1293.313,1394.778 1293.826,1395.043 1294.339,1395.573C1294.852,1396.103 1295.109,1396.581 1295.109,1397.005C1295.109,1398.277 1295.057,1400.398 1294.955,1403.367C1294.852,1406.335 1294.801,1410.577 1294.801,1416.09L1294.801,1444.878C1294.801,1449.119 1295.391,1452.009 1296.571,1453.546C1297.751,1455.084 1299.931,1455.852 1303.112,1455.852C1303.42,1455.852 1303.574,1456.17 1303.574,1456.807C1303.574,1457.443 1303.42,1457.761 1303.112,1457.761C1301.06,1457.761 1298.7,1457.708 1296.032,1457.602C1293.364,1457.496 1290.543,1457.443 1287.567,1457.443C1284.694,1457.443 1281.924,1457.496 1279.256,1457.602C1276.588,1457.708 1274.228,1457.761 1272.176,1457.761ZM1286.951,1379.032C1284.078,1379.032 1281.795,1378.184 1280.102,1376.488C1278.409,1374.791 1277.563,1372.405 1277.563,1369.33C1277.563,1366.574 1278.409,1364.373 1280.102,1362.73C1281.795,1361.086 1284.078,1360.265 1286.951,1360.265C1289.824,1360.265 1292.03,1361.086 1293.569,1362.73C1295.109,1364.373 1295.878,1366.574 1295.878,1369.33C1295.878,1375.798 1292.903,1379.032 1286.951,1379.032Z" style="fill:white;fill-rule:nonzero;"/>
        <path d="M1354.056,1457.761C1353.748,1457.761 1353.594,1457.443 1353.594,1456.807C1353.594,1456.17 1353.748,1455.852 1354.056,1455.852C1357.237,1455.852 1359.391,1455.084 1360.52,1453.546C1361.649,1452.009 1362.213,1449.119 1362.213,1444.878L1362.213,1421.975C1362.213,1416.249 1361.213,1412.008 1359.212,1409.251C1357.211,1406.495 1354.056,1405.116 1349.746,1405.116C1346.668,1405.116 1343.513,1405.911 1340.281,1407.502C1337.049,1409.092 1334.458,1411.266 1332.509,1414.023L1331.739,1412.114C1335.33,1406.813 1339.383,1402.545 1343.898,1399.311C1348.413,1396.077 1353.338,1394.46 1358.673,1394.46C1364.419,1394.46 1368.857,1396.315 1371.986,1400.027C1375.116,1403.738 1376.681,1408.509 1376.681,1414.341L1376.681,1444.878C1376.681,1449.119 1377.271,1452.009 1378.451,1453.546C1379.631,1455.084 1381.811,1455.852 1384.992,1455.852C1385.3,1455.852 1385.454,1456.17 1385.454,1456.807C1385.454,1457.443 1385.3,1457.761 1384.992,1457.761C1382.94,1457.761 1380.58,1457.708 1377.912,1457.602C1375.244,1457.496 1372.423,1457.443 1369.447,1457.443C1366.574,1457.443 1363.804,1457.496 1361.136,1457.602C1358.468,1457.708 1356.108,1457.761 1354.056,1457.761ZM1312.654,1457.761C1312.346,1457.761 1312.193,1457.443 1312.193,1456.807C1312.193,1456.17 1312.346,1455.852 1312.654,1455.852C1315.835,1455.852 1317.99,1455.084 1319.118,1453.546C1320.247,1452.009 1320.811,1449.119 1320.811,1444.878L1320.811,1414.977C1320.811,1411.69 1320.452,1409.278 1319.734,1407.74C1319.016,1406.203 1317.785,1405.434 1316.04,1405.434C1315.117,1405.434 1314.039,1405.62 1312.808,1405.991C1311.577,1406.362 1310.192,1406.919 1308.653,1407.661C1308.242,1407.873 1307.934,1407.661 1307.729,1407.025C1307.524,1406.389 1307.524,1406.017 1307.729,1405.911L1329.123,1395.096C1329.738,1394.884 1330.097,1394.778 1330.2,1394.778C1331.329,1394.778 1332.457,1396.05 1333.586,1398.595C1334.715,1401.14 1335.279,1404.798 1335.279,1409.569L1335.279,1444.878C1335.279,1449.119 1335.869,1452.009 1337.049,1453.546C1338.229,1455.084 1340.409,1455.852 1343.59,1455.852C1343.898,1455.852 1344.052,1456.17 1344.052,1456.807C1344.052,1457.443 1343.898,1457.761 1343.59,1457.761C1341.538,1457.761 1339.178,1457.708 1336.51,1457.602C1333.843,1457.496 1331.021,1457.443 1328.045,1457.443C1325.172,1457.443 1322.402,1457.496 1319.734,1457.602C1317.066,1457.708 1314.706,1457.761 1312.654,1457.761Z" style="fill:white;fill-rule:nonzero;"/>
        <path d="M297.774,1673.43L300.853,1522.334L309.779,1522.971L306.393,1673.43C306.188,1684.669 308.394,1693.576 313.011,1700.15C317.629,1706.724 324.144,1710.011 332.558,1710.011C333.174,1710.011 333.481,1710.647 333.481,1711.919C333.481,1713.192 333.174,1713.828 332.558,1713.828C328.043,1713.828 323.426,1713.722 318.706,1713.51C313.986,1713.298 308.651,1713.192 302.7,1713.192C296.133,1713.192 290.182,1713.298 284.846,1713.51C279.51,1713.722 274.585,1713.828 270.071,1713.828C269.455,1713.828 269.147,1713.192 269.147,1711.919C269.147,1710.647 269.455,1710.011 270.071,1710.011C278.484,1710.011 285.154,1706.724 290.079,1700.15C295.004,1693.576 297.569,1684.669 297.774,1673.43ZM518.173,1710.011C518.583,1710.011 518.789,1710.647 518.789,1711.919C518.789,1713.192 518.583,1713.828 518.173,1713.828C512.837,1713.828 506.784,1713.722 500.012,1713.51C493.24,1713.298 486.16,1713.192 478.772,1713.192C471.179,1713.192 464.099,1713.298 457.533,1713.51C450.966,1713.722 445.015,1713.828 439.679,1713.828C439.063,1713.828 438.756,1713.192 438.756,1711.919C438.756,1710.647 439.063,1710.011 439.679,1710.011C449.324,1710.011 455.532,1708.632 458.302,1705.875C461.072,1703.119 462.15,1697.181 461.534,1688.062L454.454,1546.828L470.153,1521.38L391.659,1711.601C391.454,1712.449 390.684,1712.874 389.351,1712.874C388.017,1712.874 387.145,1712.449 386.734,1711.601L300.237,1541.42C292.439,1526.364 283.102,1518.835 272.225,1518.835C271.61,1518.835 271.302,1518.199 271.302,1516.927C271.302,1515.654 271.61,1515.018 272.225,1515.018C276.535,1515.018 281.05,1515.124 285.769,1515.336C290.489,1515.548 294.491,1515.654 297.774,1515.654C303.11,1515.654 307.779,1515.548 311.78,1515.336C315.782,1515.124 318.911,1515.018 321.169,1515.018C324.042,1515.018 326.248,1516.078 327.787,1518.199C329.326,1520.32 331.84,1524.773 335.328,1531.559L404.28,1665.159L388.889,1693.788L460.919,1522.971C462.15,1520.002 463.432,1517.934 464.766,1516.768C466.1,1515.601 467.896,1515.018 470.153,1515.018C472.205,1515.018 474.36,1515.124 476.617,1515.336C478.875,1515.548 481.542,1515.654 484.621,1515.654C491.187,1515.654 496.78,1515.548 501.397,1515.336C506.014,1515.124 510.58,1515.018 515.095,1515.018C515.71,1515.018 516.018,1515.654 516.018,1516.927C516.018,1518.199 515.71,1518.835 515.095,1518.835C505.655,1518.835 498.729,1520.85 494.317,1524.879C489.905,1528.908 487.904,1535.164 488.314,1543.647L495.702,1688.062C496.113,1694.212 496.882,1698.877 498.011,1702.058C499.139,1705.239 501.243,1707.36 504.321,1708.42C507.399,1709.481 512.017,1710.011 518.173,1710.011Z" style="fill:white;fill-rule:nonzero;"/>
        <path d="M597.898,1717.645C584.559,1717.645 573.221,1714.782 563.884,1709.056C554.547,1703.331 547.467,1695.749 542.645,1686.313C537.822,1676.876 535.411,1666.75 535.411,1655.934C535.411,1643.423 538.386,1632.077 544.338,1621.898C550.289,1611.719 558.497,1603.555 568.963,1597.405C579.429,1591.255 591.434,1588.18 604.978,1588.18C617.086,1588.18 626.782,1591.043 634.067,1596.769C641.352,1602.494 644.994,1611.825 644.994,1624.761C644.994,1627.518 644.789,1629.851 644.379,1631.759C643.968,1633.668 643.045,1634.622 641.608,1634.622L612.058,1634.622C612.468,1622.534 611.34,1612.832 608.672,1605.516C606.004,1598.2 600.874,1594.542 593.281,1594.542C585.072,1594.542 578.557,1598.889 573.734,1607.584C568.912,1616.279 566.501,1627.836 566.501,1642.256C566.501,1654.556 568.347,1665.159 572.041,1674.066C575.735,1682.973 581.173,1689.865 588.356,1694.742C595.538,1699.62 604.362,1702.058 614.828,1702.058C620.985,1702.058 626.166,1701.263 630.373,1699.673C634.58,1698.082 639.248,1695.908 644.379,1693.152C644.789,1692.727 645.354,1692.94 646.072,1693.788C646.79,1694.636 646.944,1695.378 646.534,1696.014C638.941,1703.861 631.194,1709.427 623.293,1712.714C615.393,1716.001 606.927,1717.645 597.898,1717.645ZM555.727,1634.94L555.419,1628.896L622.831,1627.624L622.831,1634.622L555.727,1634.94Z" style="fill:white;fill-rule:nonzero;"/>
        <path d="M749.037,1713.828C748.422,1713.828 748.114,1713.192 748.114,1711.919C748.114,1710.647 748.422,1710.011 749.037,1710.011C755.399,1710.011 759.708,1708.473 761.966,1705.398C764.223,1702.323 765.352,1696.545 765.352,1688.062L765.352,1642.256C765.352,1630.805 763.351,1622.322 759.349,1616.809C755.348,1611.295 749.037,1608.538 740.418,1608.538C734.262,1608.538 727.952,1610.129 721.488,1613.31C715.023,1616.491 709.842,1620.838 705.943,1626.352L704.404,1622.534C711.586,1611.931 719.692,1603.396 728.721,1596.928C737.751,1590.46 747.601,1587.226 758.272,1587.226C769.764,1587.226 778.639,1590.937 784.898,1598.359C791.157,1605.781 794.287,1615.324 794.287,1626.988L794.287,1688.062C794.287,1696.545 795.467,1702.323 797.827,1705.398C800.187,1708.473 804.547,1710.011 810.909,1710.011C811.525,1710.011 811.832,1710.647 811.832,1711.919C811.832,1713.192 811.525,1713.828 810.909,1713.828C806.805,1713.828 802.085,1713.722 796.749,1713.51C791.414,1713.298 785.77,1713.192 779.819,1713.192C774.073,1713.192 768.533,1713.298 763.197,1713.51C757.861,1713.722 753.142,1713.828 749.037,1713.828ZM666.234,1713.828C665.618,1713.828 665.311,1713.192 665.311,1711.919C665.311,1710.647 665.618,1710.011 666.234,1710.011C672.596,1710.011 676.905,1708.473 679.162,1705.398C681.42,1702.323 682.548,1696.545 682.548,1688.062L682.548,1628.26C682.548,1621.686 681.83,1616.862 680.394,1613.787C678.957,1610.712 676.495,1609.174 673.006,1609.174C671.159,1609.174 669.004,1609.546 666.542,1610.288C664.079,1611.03 661.309,1612.143 658.231,1613.628C657.41,1614.052 656.794,1613.628 656.384,1612.355C655.973,1611.083 655.973,1610.341 656.384,1610.129L699.171,1588.498C700.402,1588.074 701.12,1587.862 701.325,1587.862C703.583,1587.862 705.84,1590.407 708.097,1595.496C710.355,1600.586 711.483,1607.902 711.483,1617.445L711.483,1688.062C711.483,1696.545 712.663,1702.323 715.023,1705.398C717.383,1708.473 721.744,1710.011 728.106,1710.011C728.721,1710.011 729.029,1710.647 729.029,1711.919C729.029,1713.192 728.721,1713.828 728.106,1713.828C724.001,1713.828 719.281,1713.722 713.946,1713.51C708.61,1713.298 702.967,1713.192 697.016,1713.192C691.27,1713.192 685.729,1713.298 680.394,1713.51C675.058,1713.722 670.338,1713.828 666.234,1713.828Z" style="fill:white;fill-rule:nonzero;"/>
        <path d="M852.465,1606.312C852.465,1610.765 853.645,1614.741 856.005,1618.24C858.364,1621.739 861.391,1624.92 865.085,1627.783C868.779,1630.646 872.781,1633.456 877.09,1636.213C882.22,1639.181 887.248,1642.309 892.173,1645.596C897.098,1648.883 901.203,1652.86 904.486,1657.525C907.769,1662.19 909.411,1668.234 909.411,1675.656C909.411,1682.442 907.718,1689.069 904.332,1695.537C900.946,1702.005 895.867,1707.254 889.095,1711.283C882.323,1715.312 873.807,1717.327 863.546,1717.327C858.416,1717.327 853.285,1716.744 848.155,1715.577C843.025,1714.411 837.484,1712.131 831.533,1708.738C831.122,1708.314 830.712,1707.784 830.302,1707.148C829.891,1706.512 829.686,1705.769 829.686,1704.921L829.07,1673.43C829.07,1672.793 829.635,1672.422 830.763,1672.316C831.892,1672.21 832.559,1672.369 832.764,1672.793C835.022,1679.58 838.202,1685.888 842.307,1691.72C846.411,1697.552 851.079,1702.217 856.312,1705.716C861.545,1709.215 866.829,1710.965 872.165,1710.965C876.269,1710.965 879.655,1709.64 882.323,1706.989C884.991,1704.338 886.325,1700.256 886.325,1694.742C886.325,1688.804 885.042,1683.874 882.477,1679.951C879.912,1676.027 876.68,1672.634 872.781,1669.772C868.882,1666.909 864.88,1664.311 860.776,1661.978C856.056,1659.221 851.336,1656.359 846.616,1653.39C841.896,1650.421 837.997,1646.657 834.919,1642.097C831.841,1637.538 830.302,1631.547 830.302,1624.125C830.302,1615.218 832.456,1608.114 836.766,1602.812C841.075,1597.511 846.667,1593.694 853.542,1591.361C860.417,1589.028 867.548,1587.862 874.935,1587.862C879.45,1587.862 883.606,1588.18 887.402,1588.816C891.199,1589.452 895.559,1590.725 900.484,1592.633C902.331,1593.27 903.255,1594.436 903.255,1596.132C903.255,1600.374 903.152,1604.774 902.947,1609.333C902.742,1613.893 902.639,1618.929 902.639,1624.443C902.639,1625.079 902.023,1625.397 900.792,1625.397C899.561,1625.397 898.945,1625.079 898.945,1624.443C898.945,1620.414 897.355,1616.066 894.174,1611.401C890.993,1606.736 886.838,1602.653 881.707,1599.154C876.577,1595.655 871.036,1593.906 865.085,1593.906C862.212,1593.906 859.391,1594.648 856.62,1596.132C853.85,1597.617 852.465,1601.01 852.465,1606.312Z" style="fill:white;fill-rule:nonzero;"/>
        <path d="M991.907,1717.645C977.747,1717.645 966.05,1714.517 956.815,1708.261C947.581,1702.005 940.757,1694 936.345,1684.245C931.933,1674.49 929.727,1664.629 929.727,1654.662C929.727,1644.059 931.882,1634.622 936.191,1626.352C940.501,1618.081 946.196,1611.136 953.275,1605.516C960.355,1599.897 968.205,1595.602 976.824,1592.633C985.442,1589.665 993.959,1588.18 1002.373,1588.18C1008.324,1588.18 1014.275,1589.081 1020.226,1590.884C1026.177,1592.686 1031.102,1595.337 1035.001,1598.836C1038.9,1602.335 1040.85,1606.736 1040.85,1612.037C1040.85,1615.642 1039.413,1618.982 1036.54,1622.057C1033.667,1625.132 1029.461,1626.67 1023.92,1626.67C1018.79,1626.67 1014.788,1625.291 1011.915,1622.534C1009.042,1619.778 1006.785,1615.748 1005.143,1610.447C1003.706,1605.357 1002.116,1601.487 1000.372,1598.836C998.627,1596.185 995.293,1594.86 990.368,1594.86C981.543,1594.86 974.515,1599.419 969.282,1608.538C964.049,1617.657 961.433,1629.533 961.433,1644.165C961.433,1654.768 962.972,1664.47 966.05,1673.271C969.128,1682.071 974.156,1689.069 981.133,1694.265C988.11,1699.461 997.447,1702.058 1009.145,1702.058C1015.301,1702.058 1020.483,1701.316 1024.689,1699.832C1028.896,1698.347 1033.565,1696.333 1038.695,1693.788C1039.106,1693.364 1039.67,1693.576 1040.388,1694.424C1041.106,1695.272 1041.26,1695.908 1040.85,1696.333C1033.667,1703.119 1026.28,1708.367 1018.687,1712.078C1011.094,1715.789 1002.167,1717.645 991.907,1717.645Z" style="fill:white;fill-rule:nonzero;"/>
        <path d="M1057.164,1713.828C1056.754,1713.828 1056.549,1713.192 1056.549,1711.919C1056.549,1710.647 1056.754,1710.011 1057.164,1710.011C1063.526,1710.011 1067.887,1708.473 1070.247,1705.398C1072.607,1702.323 1073.787,1696.545 1073.787,1688.062L1073.787,1526.47C1073.787,1519.259 1073.171,1514.011 1071.94,1510.724C1070.708,1507.437 1068.348,1505.793 1064.86,1505.793C1061.987,1505.793 1058.088,1506.96 1053.163,1509.292C1052.547,1509.504 1051.931,1508.974 1051.316,1507.702C1050.7,1506.43 1050.598,1505.687 1051.008,1505.475L1095.95,1483.527C1096.36,1483.315 1096.668,1483.209 1096.873,1483.209L1097.489,1483.209C1098.515,1483.209 1099.592,1483.686 1100.721,1484.64C1101.849,1485.594 1102.414,1486.496 1102.414,1487.344L1102.414,1688.062C1102.414,1696.545 1103.594,1702.323 1105.954,1705.398C1108.314,1708.473 1112.674,1710.011 1119.036,1710.011C1119.857,1710.011 1120.267,1710.647 1120.267,1711.919C1120.267,1713.192 1119.857,1713.828 1119.036,1713.828C1114.932,1713.828 1110.263,1713.722 1105.03,1713.51C1099.797,1713.298 1094.205,1713.192 1088.254,1713.192C1082.303,1713.192 1076.66,1713.298 1071.324,1713.51C1065.989,1713.722 1061.269,1713.828 1057.164,1713.828ZM1139.968,1713.828C1139.557,1713.828 1139.352,1713.192 1139.352,1711.919C1139.352,1710.647 1139.557,1710.011 1139.968,1710.011C1146.329,1710.011 1150.69,1708.473 1153.05,1705.398C1155.41,1702.323 1156.59,1696.545 1156.59,1688.062L1156.59,1642.256C1156.59,1619.778 1148.176,1608.538 1131.349,1608.538C1125.192,1608.538 1118.882,1610.129 1112.418,1613.31C1105.954,1616.491 1100.875,1620.838 1097.181,1626.352L1095.334,1622.534C1102.516,1611.931 1110.622,1603.396 1119.652,1596.928C1128.681,1590.46 1138.531,1587.226 1149.202,1587.226C1160.694,1587.226 1169.57,1590.937 1175.829,1598.359C1182.088,1605.781 1185.217,1615.324 1185.217,1626.988L1185.217,1688.062C1185.217,1696.545 1186.397,1702.323 1188.757,1705.398C1191.117,1708.473 1195.478,1710.011 1201.839,1710.011C1202.66,1710.011 1203.071,1710.647 1203.071,1711.919C1203.071,1713.192 1202.66,1713.828 1201.839,1713.828C1197.735,1713.828 1193.067,1713.722 1187.834,1713.51C1182.601,1713.298 1177.009,1713.192 1171.057,1713.192C1165.106,1713.192 1159.463,1713.298 1154.127,1713.51C1148.792,1713.722 1144.072,1713.828 1139.968,1713.828Z" style="fill:white;fill-rule:nonzero;"/>
        <path d="M1218.154,1713.828C1217.743,1713.828 1217.538,1713.192 1217.538,1711.919C1217.538,1710.647 1217.743,1710.011 1218.154,1710.011C1224.515,1710.011 1228.876,1708.473 1231.236,1705.398C1233.596,1702.323 1234.776,1696.545 1234.776,1688.062L1235.084,1526.47C1235.084,1519.259 1234.468,1514.011 1233.237,1510.724C1232.006,1507.437 1229.646,1505.793 1226.157,1505.793C1223.489,1505.793 1219.59,1506.96 1214.46,1509.292C1213.844,1509.504 1213.229,1508.974 1212.613,1507.702C1211.997,1506.43 1211.895,1505.687 1212.305,1505.475L1257.555,1483.527C1257.965,1483.315 1258.375,1483.209 1258.786,1483.209C1259.812,1483.209 1260.941,1483.686 1262.172,1484.64C1263.403,1485.594 1264.019,1486.496 1264.019,1487.344L1264.019,1688.062C1264.019,1696.545 1265.148,1702.323 1267.405,1705.398C1269.662,1708.473 1273.972,1710.011 1280.333,1710.011C1281.154,1710.011 1281.565,1710.647 1281.565,1711.919C1281.565,1713.192 1281.154,1713.828 1280.333,1713.828C1276.434,1713.828 1271.766,1713.722 1266.327,1713.51C1260.889,1713.298 1255.195,1713.192 1249.244,1713.192C1243.292,1713.192 1237.649,1713.298 1232.313,1713.51C1226.978,1713.722 1222.258,1713.828 1218.154,1713.828Z" style="fill:white;fill-rule:nonzero;"/>
        <path d="M1301.881,1713.828C1301.265,1713.828 1300.957,1713.192 1300.957,1711.919C1300.957,1710.647 1301.265,1710.011 1301.881,1710.011C1308.242,1710.011 1312.552,1708.473 1314.809,1705.398C1317.066,1702.323 1318.195,1696.545 1318.195,1688.062L1318.195,1631.123C1318.195,1624.125 1317.528,1618.982 1316.194,1615.695C1314.86,1612.408 1312.449,1610.765 1308.96,1610.765C1307.524,1610.765 1305.831,1611.083 1303.881,1611.719C1301.932,1612.355 1299.828,1613.204 1297.571,1614.264C1296.75,1614.476 1296.083,1613.946 1295.57,1612.673C1295.057,1611.401 1295.109,1610.659 1295.724,1610.447L1342.205,1588.18C1342.615,1587.968 1342.923,1587.862 1343.128,1587.862C1344.154,1587.862 1345.181,1588.392 1346.207,1589.452C1347.233,1590.513 1347.746,1591.467 1347.746,1592.315C1347.746,1594.86 1347.643,1599.101 1347.438,1605.039C1347.233,1610.977 1347.13,1619.459 1347.13,1630.487L1347.13,1688.062C1347.13,1696.545 1348.31,1702.323 1350.67,1705.398C1353.03,1708.473 1357.391,1710.011 1363.752,1710.011C1364.368,1710.011 1364.676,1710.647 1364.676,1711.919C1364.676,1713.192 1364.368,1713.828 1363.752,1713.828C1359.648,1713.828 1354.928,1713.722 1349.593,1713.51C1344.257,1713.298 1338.614,1713.192 1332.663,1713.192C1326.917,1713.192 1321.376,1713.298 1316.04,1713.51C1310.705,1713.722 1305.985,1713.828 1301.881,1713.828ZM1331.431,1556.371C1325.685,1556.371 1321.119,1554.674 1317.733,1551.281C1314.347,1547.888 1312.654,1543.117 1312.654,1536.967C1312.654,1531.453 1314.347,1527.053 1317.733,1523.766C1321.119,1520.479 1325.685,1518.835 1331.431,1518.835C1337.177,1518.835 1341.589,1520.479 1344.667,1523.766C1347.746,1527.053 1349.285,1531.453 1349.285,1536.967C1349.285,1549.903 1343.334,1556.371 1331.431,1556.371Z" style="fill:white;fill-rule:nonzero;"/>
        <path d="M1442.862,1717.645C1428.702,1717.645 1417.005,1714.517 1407.77,1708.261C1398.536,1702.005 1391.713,1694 1387.3,1684.245C1382.888,1674.49 1380.682,1664.629 1380.682,1654.662C1380.682,1644.059 1382.837,1634.622 1387.147,1626.352C1391.456,1618.081 1397.151,1611.136 1404.23,1605.516C1411.31,1599.897 1419.16,1595.602 1427.779,1592.633C1436.398,1589.665 1444.914,1588.18 1453.328,1588.18C1459.279,1588.18 1465.23,1589.081 1471.181,1590.884C1477.132,1592.686 1482.057,1595.337 1485.956,1598.836C1489.856,1602.335 1491.805,1606.736 1491.805,1612.037C1491.805,1615.642 1490.369,1618.982 1487.496,1622.057C1484.623,1625.132 1480.416,1626.67 1474.875,1626.67C1469.745,1626.67 1465.743,1625.291 1462.87,1622.534C1459.997,1619.778 1457.74,1615.748 1456.098,1610.447C1454.662,1605.357 1453.071,1601.487 1451.327,1598.836C1449.583,1596.185 1446.248,1594.86 1441.323,1594.86C1432.499,1594.86 1425.47,1599.419 1420.237,1608.538C1415.004,1617.657 1412.388,1629.533 1412.388,1644.165C1412.388,1654.768 1413.927,1664.47 1417.005,1673.271C1420.083,1682.071 1425.111,1689.069 1432.088,1694.265C1439.065,1699.461 1448.403,1702.058 1460.1,1702.058C1466.256,1702.058 1471.438,1701.316 1475.645,1699.832C1479.851,1698.347 1484.52,1696.333 1489.65,1693.788C1490.061,1693.364 1490.625,1693.576 1491.343,1694.424C1492.062,1695.272 1492.215,1695.908 1491.805,1696.333C1484.623,1703.119 1477.235,1708.367 1469.642,1712.078C1462.049,1715.789 1453.122,1717.645 1442.862,1717.645Z" style="fill:white;fill-rule:nonzero;"/>
        <path d="M1508.119,1713.828C1507.709,1713.828 1507.504,1713.192 1507.504,1711.919C1507.504,1710.647 1507.709,1710.011 1508.119,1710.011C1514.481,1710.011 1518.842,1708.473 1521.202,1705.398C1523.562,1702.323 1524.742,1696.545 1524.742,1688.062L1524.742,1526.47C1524.742,1519.259 1524.126,1514.011 1522.895,1510.724C1521.664,1507.437 1519.304,1505.793 1515.815,1505.793C1512.942,1505.793 1509.043,1506.96 1504.118,1509.292C1503.502,1509.504 1502.887,1508.974 1502.271,1507.702C1501.655,1506.43 1501.553,1505.687 1501.963,1505.475L1546.905,1483.527C1547.315,1483.315 1547.623,1483.209 1547.828,1483.209L1548.444,1483.209C1549.47,1483.209 1550.547,1483.686 1551.676,1484.64C1552.805,1485.594 1553.369,1486.496 1553.369,1487.344L1553.369,1688.062C1553.369,1696.545 1554.549,1702.323 1556.909,1705.398C1559.269,1708.473 1563.63,1710.011 1569.991,1710.011C1570.812,1710.011 1571.222,1710.647 1571.222,1711.919C1571.222,1713.192 1570.812,1713.828 1569.991,1713.828C1565.887,1713.828 1561.218,1713.722 1555.985,1713.51C1550.752,1713.298 1545.16,1713.192 1539.209,1713.192C1533.258,1713.192 1527.615,1713.298 1522.279,1713.51C1516.944,1713.722 1512.224,1713.828 1508.119,1713.828ZM1590.923,1713.828C1590.512,1713.828 1590.307,1713.192 1590.307,1711.919C1590.307,1710.647 1590.512,1710.011 1590.923,1710.011C1597.284,1710.011 1601.645,1708.473 1604.005,1705.398C1606.365,1702.323 1607.545,1696.545 1607.545,1688.062L1607.545,1642.256C1607.545,1619.778 1599.131,1608.538 1582.304,1608.538C1576.148,1608.538 1569.837,1610.129 1563.373,1613.31C1556.909,1616.491 1551.83,1620.838 1548.136,1626.352L1546.289,1622.534C1553.471,1611.931 1561.577,1603.396 1570.607,1596.928C1579.636,1590.46 1589.486,1587.226 1600.157,1587.226C1611.649,1587.226 1620.525,1590.937 1626.784,1598.359C1633.043,1605.781 1636.172,1615.324 1636.172,1626.988L1636.172,1688.062C1636.172,1696.545 1637.352,1702.323 1639.712,1705.398C1642.072,1708.473 1646.433,1710.011 1652.794,1710.011C1653.615,1710.011 1654.026,1710.647 1654.026,1711.919C1654.026,1713.192 1653.615,1713.828 1652.794,1713.828C1648.69,1713.828 1644.022,1713.722 1638.789,1713.51C1633.556,1713.298 1627.964,1713.192 1622.013,1713.192C1616.061,1713.192 1610.418,1713.298 1605.083,1713.51C1599.747,1713.722 1595.027,1713.828 1590.923,1713.828Z" style="fill:white;fill-rule:nonzero;"/>
        <path d="M1664.799,1713.828C1664.389,1713.828 1664.184,1713.192 1664.184,1711.919C1664.184,1710.647 1664.389,1710.011 1664.799,1710.011C1671.161,1710.011 1675.522,1708.473 1677.882,1705.398C1680.242,1702.323 1681.422,1696.545 1681.422,1688.062L1681.422,1526.47C1681.422,1519.259 1680.806,1514.011 1679.575,1510.724C1678.343,1507.437 1675.984,1505.793 1672.495,1505.793C1669.622,1505.793 1665.723,1506.96 1660.798,1509.292C1660.182,1509.504 1659.567,1508.974 1658.951,1507.702C1658.335,1506.43 1658.233,1505.687 1658.643,1505.475L1703.585,1483.527C1704.2,1483.315 1704.713,1483.209 1705.124,1483.209C1706.15,1483.209 1707.227,1483.686 1708.356,1484.64C1709.485,1485.594 1710.049,1486.496 1710.049,1487.344L1710.049,1688.062C1710.049,1696.545 1711.229,1702.323 1713.589,1705.398C1715.949,1708.473 1720.31,1710.011 1726.671,1710.011C1727.492,1710.011 1727.902,1710.647 1727.902,1711.919C1727.902,1713.192 1727.492,1713.828 1726.671,1713.828C1722.567,1713.828 1717.898,1713.722 1712.665,1713.51C1707.432,1713.298 1701.84,1713.192 1695.889,1713.192C1689.938,1713.192 1684.295,1713.298 1678.959,1713.51C1673.624,1713.722 1668.904,1713.828 1664.799,1713.828ZM1742.37,1713.828C1741.754,1713.828 1741.446,1713.192 1741.446,1711.919C1741.446,1710.647 1741.754,1710.011 1742.37,1710.011C1747.911,1710.011 1751.399,1708.738 1752.836,1706.194C1754.272,1703.649 1753.657,1700.574 1750.989,1696.969L1713.743,1647.664L1734.674,1631.123L1777.769,1688.062C1783.72,1695.908 1789.415,1701.528 1794.853,1704.921C1800.291,1708.314 1805.781,1710.011 1811.321,1710.011C1811.937,1710.011 1812.245,1710.647 1812.245,1711.919C1812.245,1713.192 1811.937,1713.828 1811.321,1713.828C1807.217,1713.828 1802.497,1713.722 1797.162,1713.51C1791.826,1713.298 1786.183,1713.192 1780.232,1713.192C1772.023,1713.192 1764.892,1713.298 1758.838,1713.51C1752.784,1713.722 1747.295,1713.828 1742.37,1713.828ZM1698.967,1666.432L1697.12,1661.342L1738.676,1619.99C1744.422,1614.476 1747.038,1608.909 1746.525,1603.29C1746.012,1597.67 1742.165,1594.86 1734.982,1594.86C1734.572,1594.86 1734.367,1594.224 1734.367,1592.952C1734.367,1591.679 1734.572,1591.043 1734.982,1591.043C1740.318,1591.043 1745.705,1591.149 1751.143,1591.361C1756.581,1591.573 1763.917,1591.679 1773.152,1591.679C1781.566,1591.679 1788.286,1591.573 1793.314,1591.361C1798.342,1591.149 1803.113,1591.043 1807.628,1591.043C1808.243,1591.043 1808.551,1591.679 1808.551,1592.952C1808.551,1594.224 1808.243,1594.86 1807.628,1594.86C1802.497,1594.86 1796.392,1595.761 1789.312,1597.564C1782.232,1599.366 1774.999,1602.229 1767.611,1606.152C1760.223,1610.076 1753.246,1615.218 1746.679,1621.58L1698.967,1666.432Z" style="fill:white;fill-rule:nonzero;"/>
        <path d="M1876.271,1717.645C1862.932,1717.645 1851.594,1714.782 1842.257,1709.056C1832.92,1703.331 1825.84,1695.749 1821.018,1686.313C1816.195,1676.876 1813.784,1666.75 1813.784,1655.934C1813.784,1643.423 1816.76,1632.077 1822.711,1621.898C1828.662,1611.719 1836.87,1603.555 1847.336,1597.405C1857.802,1591.255 1869.807,1588.18 1883.351,1588.18C1895.459,1588.18 1905.155,1591.043 1912.44,1596.769C1919.725,1602.494 1923.368,1611.825 1923.368,1624.761C1923.368,1627.518 1923.162,1629.851 1922.752,1631.759C1922.341,1633.668 1921.418,1634.622 1919.982,1634.622L1890.431,1634.622C1890.841,1622.534 1889.713,1612.832 1887.045,1605.516C1884.377,1598.2 1879.247,1594.542 1871.654,1594.542C1863.445,1594.542 1856.93,1598.889 1852.107,1607.584C1847.285,1616.279 1844.874,1627.836 1844.874,1642.256C1844.874,1654.556 1846.721,1665.159 1850.414,1674.066C1854.108,1682.973 1859.546,1689.865 1866.729,1694.742C1873.911,1699.62 1882.735,1702.058 1893.201,1702.058C1899.358,1702.058 1904.539,1701.263 1908.746,1699.673C1912.953,1698.082 1917.622,1695.908 1922.752,1693.152C1923.162,1692.727 1923.727,1692.94 1924.445,1693.788C1925.163,1694.636 1925.317,1695.378 1924.907,1696.014C1917.314,1703.861 1909.567,1709.427 1901.666,1712.714C1893.766,1716.001 1885.301,1717.645 1876.271,1717.645ZM1834.1,1634.94L1833.792,1628.896L1901.205,1627.624L1901.205,1634.622L1834.1,1634.94Z" style="fill:white;fill-rule:nonzero;"/>
        <path d="M1944.607,1713.828C1943.991,1713.828 1943.684,1713.192 1943.684,1711.919C1943.684,1710.647 1943.991,1710.011 1944.607,1710.011C1950.969,1710.011 1955.278,1708.473 1957.535,1705.398C1959.793,1702.323 1960.922,1696.545 1960.922,1688.062L1960.922,1631.123C1960.922,1624.125 1960.255,1618.982 1958.921,1615.695C1957.587,1612.408 1955.176,1610.765 1951.687,1610.765C1950.25,1610.765 1948.557,1611.083 1946.608,1611.719C1944.658,1612.355 1942.555,1613.204 1940.298,1614.264C1939.477,1614.476 1938.81,1613.946 1938.297,1612.673C1937.784,1611.401 1937.835,1610.659 1938.451,1610.447L1984.931,1588.18C1985.342,1587.968 1985.65,1587.862 1985.855,1587.862C1986.881,1587.862 1987.907,1588.392 1988.933,1589.452C1989.959,1590.513 1990.472,1591.467 1990.472,1592.315C1990.472,1594.86 1990.37,1599.101 1990.164,1605.039C1989.959,1610.977 1989.857,1619.459 1989.857,1630.487L1989.857,1688.062C1989.857,1696.545 1991.036,1702.323 1993.396,1705.398C1995.756,1708.473 2000.117,1710.011 2006.479,1710.011C2007.094,1710.011 2007.402,1710.647 2007.402,1711.919C2007.402,1713.192 2007.094,1713.828 2006.479,1713.828C2002.374,1713.828 1997.655,1713.722 1992.319,1713.51C1986.984,1713.298 1981.34,1713.192 1975.389,1713.192C1969.643,1713.192 1964.102,1713.298 1958.767,1713.51C1953.431,1713.722 1948.711,1713.828 1944.607,1713.828ZM1974.158,1556.371C1968.412,1556.371 1963.846,1554.674 1960.46,1551.281C1957.074,1547.888 1955.381,1543.117 1955.381,1536.967C1955.381,1531.453 1957.074,1527.053 1960.46,1523.766C1963.846,1520.479 1968.412,1518.835 1974.158,1518.835C1979.904,1518.835 1984.316,1520.479 1987.394,1523.766C1990.472,1527.053 1992.011,1531.453 1992.011,1536.967C1992.011,1549.903 1986.06,1556.371 1974.158,1556.371Z" style="fill:white;fill-rule:nonzero;"/>
        <path d="M2070.197,1717.645C2065.272,1717.645 2060.296,1716.797 2055.268,1715.1C2050.24,1713.404 2046.034,1710.435 2042.647,1706.194C2039.261,1701.952 2037.568,1696.014 2037.568,1688.38L2037.568,1617.763C2037.568,1613.31 2037.055,1609.811 2036.029,1607.266C2035.003,1604.721 2033.362,1602.919 2031.104,1601.858C2028.847,1600.798 2025.769,1600.268 2021.87,1600.268C2021.049,1600.268 2020.638,1599.313 2020.638,1597.405C2020.638,1595.496 2021.049,1594.542 2021.87,1594.542C2032.336,1594.118 2040.852,1591.732 2047.419,1587.385C2053.986,1583.038 2058.911,1576.623 2062.194,1568.14C2062.604,1567.292 2063.477,1566.868 2064.81,1566.868C2066.144,1566.868 2066.811,1567.292 2066.811,1568.14L2066.811,1677.883C2066.811,1686.366 2068.915,1692.409 2073.122,1696.014C2077.328,1699.62 2082.51,1701.422 2088.666,1701.422C2093.386,1701.422 2097.85,1700.415 2102.057,1698.4C2106.263,1696.386 2109.803,1694.212 2112.676,1691.879C2113.292,1691.243 2114.062,1691.402 2114.985,1692.356C2115.908,1693.311 2115.96,1694.106 2115.139,1694.742C2107.546,1702.588 2100.21,1708.367 2093.13,1712.078C2086.05,1715.789 2078.406,1717.645 2070.197,1717.645ZM2105.597,1607.266C2097.183,1605.357 2089.026,1604.032 2081.125,1603.29C2073.224,1602.547 2064.862,1602.176 2056.038,1602.176L2056.038,1593.906C2064.451,1593.906 2072.711,1593.588 2080.817,1592.952C2088.923,1592.315 2097.593,1591.573 2106.828,1590.725C2107.238,1590.725 2107.7,1591.52 2108.213,1593.111C2108.726,1594.701 2108.983,1596.451 2108.983,1598.359C2108.983,1600.48 2108.623,1602.547 2107.905,1604.562C2107.187,1606.577 2106.417,1607.478 2105.597,1607.266Z" style="fill:white;fill-rule:nonzero;"/>
        <path d="M719.91,1955.739C706.982,1955.739 695.265,1953.374 684.761,1948.642C674.257,1943.91 665.278,1937.369 657.827,1929.019C650.375,1920.669 644.629,1911.067 640.589,1900.212C636.549,1889.357 634.529,1877.806 634.529,1865.559C634.529,1850.529 637.357,1837.355 643.013,1826.036C648.669,1814.717 656.166,1805.3 665.503,1797.785C674.84,1790.27 685.075,1784.657 696.208,1780.946C707.341,1777.235 718.384,1775.379 729.337,1775.379C742.624,1775.379 754.52,1777.838 765.025,1782.755C775.529,1787.672 784.462,1794.306 791.824,1802.656C799.186,1811.006 804.798,1820.469 808.658,1831.046C812.519,1841.623 814.449,1852.478 814.449,1863.611C814.449,1876.6 811.935,1888.661 806.907,1899.794C801.88,1910.928 795.011,1920.669 786.303,1929.019C777.594,1937.369 767.539,1943.91 756.136,1948.642C744.734,1953.374 732.659,1955.739 719.91,1955.739ZM728.798,1948.781C738.854,1948.781 747.832,1945.812 755.732,1939.874C763.633,1933.937 769.873,1925.216 774.452,1913.711C779.03,1902.207 781.32,1888.197 781.32,1871.683C781.32,1854.612 778.806,1839.396 773.778,1826.036C768.751,1812.676 761.568,1802.146 752.231,1794.445C742.894,1786.745 731.671,1782.894 718.563,1782.894C702.223,1782.894 689.654,1789.296 680.855,1802.099C672.057,1814.903 667.658,1832.623 667.658,1855.261C667.658,1868.807 669.184,1881.285 672.236,1892.697C675.289,1904.109 679.554,1914.036 685.03,1922.479C690.507,1930.921 696.971,1937.416 704.423,1941.962C711.875,1946.508 720,1948.781 728.798,1948.781ZM702.672,1756.731C698.183,1756.731 694.592,1755.386 691.898,1752.695C689.205,1750.005 687.858,1746.247 687.858,1741.423C687.858,1736.969 689.205,1733.444 691.898,1730.846C694.592,1728.248 698.183,1726.949 702.672,1726.949C707.161,1726.949 710.618,1728.248 713.042,1730.846C715.466,1733.444 716.678,1736.969 716.678,1741.423C716.678,1751.628 712.009,1756.731 702.672,1756.731ZM749.538,1756.731C745.049,1756.731 741.502,1755.386 738.899,1752.695C736.295,1750.005 734.993,1746.247 734.993,1741.423C734.993,1736.969 736.295,1733.49 738.899,1730.985C741.502,1728.48 745.049,1727.228 749.538,1727.228C758.875,1727.228 763.543,1731.959 763.543,1741.423C763.543,1751.628 758.875,1756.731 749.538,1756.731Z" style="fill:white;fill-rule:nonzero;"/>
        <path d="M859.429,1858.323C859.429,1862.219 860.461,1865.699 862.526,1868.76C864.591,1871.822 867.24,1874.605 870.472,1877.11C873.704,1879.615 877.206,1882.074 880.976,1884.486C885.465,1887.084 889.865,1889.821 894.174,1892.697C898.484,1895.573 902.075,1899.052 904.948,1903.134C907.821,1907.217 909.257,1912.505 909.257,1918.999C909.257,1924.937 907.776,1930.736 904.813,1936.395C901.85,1942.055 897.406,1946.647 891.481,1950.173C885.555,1953.698 878.103,1955.461 869.125,1955.461C864.636,1955.461 860.147,1954.951 855.658,1953.93C851.169,1952.91 846.321,1950.915 841.114,1947.946C840.755,1947.575 840.396,1947.111 840.036,1946.554C839.677,1945.998 839.498,1945.348 839.498,1944.606L838.959,1917.051C838.959,1916.494 839.453,1916.17 840.44,1916.077C841.428,1915.984 842.012,1916.123 842.191,1916.494C844.166,1922.432 846.949,1927.952 850.541,1933.055C854.132,1938.158 858.217,1942.24 862.796,1945.302C867.375,1948.364 871.998,1949.894 876.667,1949.894C880.258,1949.894 883.221,1948.735 885.555,1946.415C887.889,1944.096 889.057,1940.524 889.057,1935.699C889.057,1930.504 887.934,1926.19 885.69,1922.757C883.445,1919.324 880.617,1916.355 877.206,1913.85C873.794,1911.345 870.292,1909.072 866.701,1907.031C862.571,1904.619 858.441,1902.114 854.312,1899.516C850.182,1896.918 846.77,1893.625 844.077,1889.635C841.383,1885.646 840.036,1880.404 840.036,1873.909C840.036,1866.116 841.922,1859.9 845.693,1855.261C849.463,1850.622 854.356,1847.282 860.372,1845.241C866.387,1843.2 872.627,1842.179 879.091,1842.179C883.041,1842.179 886.677,1842.458 889.999,1843.014C893.321,1843.571 897.137,1844.684 901.446,1846.354C903.062,1846.911 903.87,1847.932 903.87,1849.416C903.87,1853.127 903.781,1856.977 903.601,1860.967C903.421,1864.956 903.332,1869.363 903.332,1874.188C903.332,1874.744 902.793,1875.023 901.716,1875.023C900.638,1875.023 900.1,1874.744 900.1,1874.188C900.1,1870.662 898.708,1866.858 895.925,1862.776C893.142,1858.694 889.505,1855.122 885.016,1852.06C880.527,1848.999 875.679,1847.468 870.472,1847.468C867.958,1847.468 865.489,1848.117 863.065,1849.416C860.641,1850.715 859.429,1853.684 859.429,1858.323Z" style="fill:white;fill-rule:nonzero;"/>
        <path d="M967.974,1955.739C963.664,1955.739 959.31,1954.997 954.911,1953.513C950.511,1952.028 946.83,1949.431 943.868,1945.719C940.905,1942.008 939.424,1936.813 939.424,1930.133L939.424,1868.343C939.424,1864.446 938.975,1861.384 938.077,1859.158C937.179,1856.931 935.743,1855.354 933.767,1854.426C931.792,1853.498 929.099,1853.034 925.687,1853.034C924.969,1853.034 924.61,1852.199 924.61,1850.529C924.61,1848.859 924.969,1848.024 925.687,1848.024C934.845,1847.653 942.296,1845.566 948.042,1841.762C953.788,1837.958 958.098,1832.345 960.971,1824.923C961.33,1824.18 962.093,1823.809 963.26,1823.809C964.427,1823.809 965.011,1824.18 965.011,1824.923L965.011,1920.948C965.011,1928.37 966.851,1933.658 970.532,1936.813C974.213,1939.967 978.747,1941.544 984.134,1941.544C988.264,1941.544 992.17,1940.663 995.851,1938.9C999.532,1937.137 1002.629,1935.236 1005.143,1933.194C1005.682,1932.638 1006.355,1932.777 1007.163,1933.612C1007.971,1934.447 1008.016,1935.143 1007.298,1935.699C1000.654,1942.565 994.235,1947.621 988.04,1950.869C981.845,1954.116 975.156,1955.739 967.974,1955.739ZM998.948,1859.158C991.586,1857.488 984.448,1856.328 977.535,1855.679C970.622,1855.029 963.305,1854.704 955.584,1854.704L955.584,1847.468C962.946,1847.468 970.173,1847.189 977.266,1846.633C984.359,1846.076 991.945,1845.427 1000.025,1844.684C1000.385,1844.684 1000.789,1845.38 1001.237,1846.772C1001.686,1848.164 1001.911,1849.694 1001.911,1851.364C1001.911,1853.22 1001.597,1855.029 1000.968,1856.792C1000.34,1858.555 999.666,1859.343 998.948,1859.158Z" style="fill:white;fill-rule:nonzero;"/>
        <path d="M1072.209,1955.739C1060.538,1955.739 1050.617,1953.234 1042.447,1948.224C1034.277,1943.214 1028.082,1936.581 1023.862,1928.324C1019.642,1920.066 1017.533,1911.206 1017.533,1901.743C1017.533,1890.795 1020.136,1880.868 1025.344,1871.961C1030.551,1863.054 1037.733,1855.91 1046.891,1850.529C1056.049,1845.148 1066.553,1842.458 1078.404,1842.458C1088.998,1842.458 1097.482,1844.963 1103.857,1849.973C1110.231,1854.983 1113.418,1863.147 1113.418,1874.466C1113.418,1876.878 1113.239,1878.919 1112.88,1880.589C1112.521,1882.259 1111.712,1883.094 1110.456,1883.094L1084.599,1883.094C1084.958,1872.518 1083.97,1864.029 1081.636,1857.627C1079.302,1851.225 1074.813,1848.024 1068.169,1848.024C1060.986,1848.024 1055.285,1851.828 1051.066,1859.436C1046.846,1867.044 1044.736,1877.157 1044.736,1889.774C1044.736,1900.537 1046.352,1909.814 1049.584,1917.608C1052.816,1925.401 1057.575,1931.432 1063.859,1935.699C1070.144,1939.967 1077.865,1942.101 1087.023,1942.101C1092.41,1942.101 1096.944,1941.405 1100.625,1940.014C1104.306,1938.622 1108.391,1936.72 1112.88,1934.308C1113.239,1933.937 1113.733,1934.122 1114.361,1934.864C1114.989,1935.607 1115.124,1936.256 1114.765,1936.813C1108.121,1943.678 1101.343,1948.549 1094.43,1951.425C1087.517,1954.301 1080.11,1955.739 1072.209,1955.739ZM1035.309,1883.373L1035.04,1878.084L1094.026,1876.971L1094.026,1883.094L1035.309,1883.373Z" style="fill:white;fill-rule:nonzero;"/>
        <path d="M1164.863,1876.971L1162.708,1873.353C1169.711,1865.003 1175.636,1858.601 1180.484,1854.148C1185.333,1849.694 1189.462,1846.586 1192.874,1844.824C1196.286,1843.061 1199.338,1842.179 1202.032,1842.179C1205.803,1842.179 1209.708,1843.617 1213.748,1846.494C1217.788,1849.37 1219.808,1853.127 1219.808,1857.766C1219.808,1861.663 1218.686,1864.864 1216.442,1867.369C1214.197,1869.874 1211.1,1871.126 1207.149,1871.126C1203.378,1871.126 1200.55,1870.105 1198.665,1868.064C1196.78,1866.023 1195.074,1864.029 1193.547,1862.08C1192.021,1860.132 1189.822,1859.158 1186.949,1859.158C1185.692,1859.158 1184.3,1859.575 1182.774,1860.41C1181.248,1861.245 1179.093,1862.915 1176.31,1865.42C1173.526,1867.925 1169.711,1871.775 1164.863,1876.971ZM1132.003,1952.399C1131.464,1952.399 1131.195,1951.843 1131.195,1950.729C1131.195,1949.616 1131.464,1949.059 1132.003,1949.059C1137.569,1949.059 1141.34,1947.714 1143.315,1945.024C1145.29,1942.333 1146.278,1937.277 1146.278,1929.854L1146.278,1877.528C1146.278,1871.775 1145.65,1867.554 1144.393,1864.864C1143.136,1862.173 1140.981,1860.828 1137.928,1860.828C1136.312,1860.828 1134.427,1861.152 1132.272,1861.802C1130.118,1862.451 1127.693,1863.425 1125,1864.724C1124.282,1865.095 1123.743,1864.724 1123.384,1863.611C1123.025,1862.498 1123.025,1861.848 1123.384,1861.663L1160.822,1842.736C1161.9,1842.365 1162.528,1842.179 1162.708,1842.179C1164.683,1842.179 1166.658,1844.406 1168.633,1848.859C1170.609,1853.313 1171.596,1859.714 1171.596,1868.064L1171.596,1929.854C1171.596,1934.679 1172.314,1938.529 1173.751,1941.405C1175.187,1944.281 1177.656,1946.276 1181.158,1947.389C1184.659,1948.503 1189.462,1949.059 1195.568,1949.059C1196.286,1949.059 1196.645,1949.616 1196.645,1950.729C1196.645,1951.843 1196.286,1952.399 1195.568,1952.399C1190.719,1952.399 1185.198,1952.307 1179.003,1952.121C1172.808,1951.936 1166.12,1951.843 1158.937,1951.843C1153.909,1951.843 1149.061,1951.936 1144.393,1952.121C1139.724,1952.307 1135.594,1952.399 1132.003,1952.399Z" style="fill:white;fill-rule:nonzero;"/>
        <path d="M1266.943,1876.971L1264.788,1873.353C1271.791,1865.003 1277.717,1858.601 1282.565,1854.148C1287.413,1849.694 1291.543,1846.586 1294.955,1844.824C1298.366,1843.061 1301.419,1842.179 1304.112,1842.179C1307.883,1842.179 1311.789,1843.617 1315.829,1846.494C1319.869,1849.37 1321.889,1853.127 1321.889,1857.766C1321.889,1861.663 1320.767,1864.864 1318.522,1867.369C1316.278,1869.874 1313.18,1871.126 1309.23,1871.126C1305.459,1871.126 1302.631,1870.105 1300.746,1868.064C1298.86,1866.023 1297.154,1864.029 1295.628,1862.08C1294.102,1860.132 1291.902,1859.158 1289.029,1859.158C1287.772,1859.158 1286.381,1859.575 1284.854,1860.41C1283.328,1861.245 1281.173,1862.915 1278.39,1865.42C1275.607,1867.925 1271.791,1871.775 1266.943,1876.971ZM1234.083,1952.399C1233.545,1952.399 1233.275,1951.843 1233.275,1950.729C1233.275,1949.616 1233.545,1949.059 1234.083,1949.059C1239.65,1949.059 1243.421,1947.714 1245.396,1945.024C1247.371,1942.333 1248.359,1937.277 1248.359,1929.854L1248.359,1877.528C1248.359,1871.775 1247.73,1867.554 1246.473,1864.864C1245.216,1862.173 1243.061,1860.828 1240.009,1860.828C1238.393,1860.828 1236.508,1861.152 1234.353,1861.802C1232.198,1862.451 1229.774,1863.425 1227.081,1864.724C1226.362,1865.095 1225.824,1864.724 1225.464,1863.611C1225.105,1862.498 1225.105,1861.848 1225.464,1861.663L1262.903,1842.736C1263.98,1842.365 1264.609,1842.179 1264.788,1842.179C1266.764,1842.179 1268.739,1844.406 1270.714,1848.859C1272.689,1853.313 1273.677,1859.714 1273.677,1868.064L1273.677,1929.854C1273.677,1934.679 1274.395,1938.529 1275.831,1941.405C1277.268,1944.281 1279.737,1946.276 1283.238,1947.389C1286.74,1948.503 1291.543,1949.059 1297.648,1949.059C1298.366,1949.059 1298.725,1949.616 1298.725,1950.729C1298.725,1951.843 1298.366,1952.399 1297.648,1952.399C1292.8,1952.399 1287.278,1952.307 1281.084,1952.121C1274.889,1951.936 1268.2,1951.843 1261.018,1951.843C1255.99,1951.843 1251.142,1951.936 1246.473,1952.121C1241.805,1952.307 1237.675,1952.399 1234.083,1952.399Z" style="fill:white;fill-rule:nonzero;"/>
        <path d="M1385.723,1955.739C1374.051,1955.739 1364.131,1953.234 1355.961,1948.224C1347.791,1943.214 1341.596,1936.581 1337.376,1928.324C1333.156,1920.066 1331.046,1911.206 1331.046,1901.743C1331.046,1890.795 1333.65,1880.868 1338.857,1871.961C1344.065,1863.054 1351.247,1855.91 1360.405,1850.529C1369.562,1845.148 1380.067,1842.458 1391.918,1842.458C1402.512,1842.458 1410.996,1844.963 1417.371,1849.973C1423.745,1854.983 1426.932,1863.147 1426.932,1874.466C1426.932,1876.878 1426.753,1878.919 1426.393,1880.589C1426.034,1882.259 1425.226,1883.094 1423.969,1883.094L1398.113,1883.094C1398.472,1872.518 1397.484,1864.029 1395.15,1857.627C1392.816,1851.225 1388.327,1848.024 1381.683,1848.024C1374.5,1848.024 1368.799,1851.828 1364.58,1859.436C1360.36,1867.044 1358.25,1877.157 1358.25,1889.774C1358.25,1900.537 1359.866,1909.814 1363.098,1917.608C1366.33,1925.401 1371.089,1931.432 1377.373,1935.699C1383.658,1939.967 1391.379,1942.101 1400.537,1942.101C1405.923,1942.101 1410.457,1941.405 1414.138,1940.014C1417.819,1938.622 1421.904,1936.72 1426.393,1934.308C1426.753,1933.937 1427.246,1934.122 1427.875,1934.864C1428.503,1935.607 1428.638,1936.256 1428.279,1936.813C1421.635,1943.678 1414.857,1948.549 1407.944,1951.425C1401.03,1954.301 1393.624,1955.739 1385.723,1955.739ZM1348.823,1883.373L1348.554,1878.084L1407.54,1876.971L1407.54,1883.094L1348.823,1883.373Z" style="fill:white;fill-rule:nonzero;"/>
        <path d="M1445.517,1952.399C1444.978,1952.399 1444.709,1951.843 1444.709,1950.729C1444.709,1949.616 1444.978,1949.059 1445.517,1949.059C1451.083,1949.059 1454.854,1947.714 1456.829,1945.024C1458.804,1942.333 1459.792,1937.277 1459.792,1929.854L1459.792,1880.033C1459.792,1873.909 1459.208,1869.41 1458.041,1866.534C1456.874,1863.657 1454.764,1862.219 1451.712,1862.219C1450.455,1862.219 1448.973,1862.498 1447.267,1863.054C1445.562,1863.611 1443.721,1864.353 1441.746,1865.281C1441.028,1865.467 1440.444,1865.003 1439.995,1863.889C1439.546,1862.776 1439.591,1862.127 1440.13,1861.941L1480.801,1842.458C1481.16,1842.272 1481.429,1842.179 1481.609,1842.179C1482.506,1842.179 1483.404,1842.643 1484.302,1843.571C1485.2,1844.499 1485.649,1845.334 1485.649,1846.076C1485.649,1848.303 1485.559,1852.014 1485.379,1857.209C1485.2,1862.405 1485.11,1869.827 1485.11,1879.476L1485.11,1929.854C1485.11,1937.277 1486.142,1942.333 1488.207,1945.024C1490.272,1947.714 1494.088,1949.059 1499.654,1949.059C1500.193,1949.059 1500.462,1949.616 1500.462,1950.729C1500.462,1951.843 1500.193,1952.399 1499.654,1952.399C1496.063,1952.399 1491.933,1952.307 1487.265,1952.121C1482.596,1951.936 1477.658,1951.843 1472.451,1951.843C1467.423,1951.843 1462.575,1951.936 1457.906,1952.121C1453.238,1952.307 1449.108,1952.399 1445.517,1952.399ZM1471.374,1814.624C1466.346,1814.624 1462.351,1813.14 1459.388,1810.171C1456.425,1807.202 1454.944,1803.027 1454.944,1797.646C1454.944,1792.822 1456.425,1788.971 1459.388,1786.095C1462.351,1783.219 1466.346,1781.781 1471.374,1781.781C1476.401,1781.781 1480.262,1783.219 1482.955,1786.095C1485.649,1788.971 1486.995,1792.822 1486.995,1797.646C1486.995,1808.965 1481.788,1814.624 1471.374,1814.624Z" style="fill:white;fill-rule:nonzero;"/>
        <path d="M1568.875,1955.739C1556.486,1955.739 1546.251,1953.003 1538.17,1947.529C1530.09,1942.055 1524.12,1935.05 1520.259,1926.514C1516.399,1917.979 1514.468,1909.351 1514.468,1900.629C1514.468,1891.352 1516.354,1883.094 1520.124,1875.858C1523.895,1868.621 1528.878,1862.544 1535.073,1857.627C1541.268,1852.71 1548.136,1848.952 1555.678,1846.354C1563.219,1843.757 1570.671,1842.458 1578.033,1842.458C1583.24,1842.458 1588.447,1843.246 1593.655,1844.824C1598.862,1846.401 1603.171,1848.72 1606.583,1851.782C1609.995,1854.844 1611.701,1858.694 1611.701,1863.333C1611.701,1866.487 1610.444,1869.41 1607.93,1872.1C1605.416,1874.791 1601.735,1876.136 1596.887,1876.136C1592.398,1876.136 1588.896,1874.93 1586.382,1872.518C1583.869,1870.105 1581.893,1866.58 1580.457,1861.941C1579.2,1857.488 1577.808,1854.101 1576.282,1851.782C1574.756,1849.462 1571.838,1848.303 1567.529,1848.303C1559.807,1848.303 1553.657,1852.292 1549.079,1860.271C1544.5,1868.25 1542.21,1878.641 1542.21,1891.444C1542.21,1900.722 1543.557,1909.211 1546.251,1916.912C1548.944,1924.612 1553.343,1930.736 1559.448,1935.282C1565.553,1939.828 1573.723,1942.101 1583.958,1942.101C1589.345,1942.101 1593.879,1941.452 1597.56,1940.153C1601.241,1938.854 1605.326,1937.091 1609.815,1934.864C1610.174,1934.493 1610.668,1934.679 1611.297,1935.421C1611.925,1936.163 1612.06,1936.72 1611.701,1937.091C1605.416,1943.029 1598.952,1947.621 1592.308,1950.869C1585.664,1954.116 1577.853,1955.739 1568.875,1955.739Z" style="fill:white;fill-rule:nonzero;"/>
        <path d="M1625.976,1952.399C1625.617,1952.399 1625.437,1951.843 1625.437,1950.729C1625.437,1949.616 1625.617,1949.059 1625.976,1949.059C1631.542,1949.059 1635.358,1947.714 1637.423,1945.024C1639.488,1942.333 1640.52,1937.277 1640.52,1929.854L1640.52,1788.461C1640.52,1782.152 1639.982,1777.56 1638.904,1774.683C1637.827,1771.807 1635.762,1770.369 1632.709,1770.369C1630.195,1770.369 1626.784,1771.39 1622.474,1773.431C1621.936,1773.617 1621.397,1773.153 1620.858,1772.039C1620.32,1770.926 1620.23,1770.277 1620.589,1770.091L1659.913,1750.886C1660.272,1750.7 1660.541,1750.608 1660.721,1750.608L1661.26,1750.608C1662.157,1750.608 1663.1,1751.025 1664.088,1751.86C1665.075,1752.695 1665.569,1753.484 1665.569,1754.226L1665.569,1929.854C1665.569,1937.277 1666.601,1942.333 1668.666,1945.024C1670.731,1947.714 1674.547,1949.059 1680.113,1949.059C1680.832,1949.059 1681.191,1949.616 1681.191,1950.729C1681.191,1951.843 1680.832,1952.399 1680.113,1952.399C1676.522,1952.399 1672.437,1952.307 1667.858,1952.121C1663.28,1951.936 1658.387,1951.843 1653.179,1951.843C1647.972,1951.843 1643.034,1951.936 1638.365,1952.121C1633.697,1952.307 1629.567,1952.399 1625.976,1952.399ZM1698.429,1952.399C1698.07,1952.399 1697.89,1951.843 1697.89,1950.729C1697.89,1949.616 1698.07,1949.059 1698.429,1949.059C1703.995,1949.059 1707.811,1947.714 1709.876,1945.024C1711.941,1942.333 1712.973,1937.277 1712.973,1929.854L1712.973,1889.774C1712.973,1870.105 1705.611,1860.271 1690.887,1860.271C1685.5,1860.271 1679.979,1861.663 1674.323,1864.446C1668.666,1867.229 1664.222,1871.033 1660.99,1875.858L1659.374,1872.518C1665.659,1863.24 1672.751,1855.771 1680.652,1850.112C1688.553,1844.452 1697.172,1841.623 1706.509,1841.623C1716.564,1841.623 1724.33,1844.87 1729.807,1851.364C1735.284,1857.859 1738.022,1866.209 1738.022,1876.414L1738.022,1929.854C1738.022,1937.277 1739.054,1942.333 1741.119,1945.024C1743.184,1947.714 1747,1949.059 1752.566,1949.059C1753.285,1949.059 1753.644,1949.616 1753.644,1950.729C1753.644,1951.843 1753.285,1952.399 1752.566,1952.399C1748.975,1952.399 1744.89,1952.307 1740.311,1952.121C1735.733,1951.936 1730.839,1951.843 1725.632,1951.843C1720.425,1951.843 1715.487,1951.936 1710.818,1952.121C1706.15,1952.307 1702.02,1952.399 1698.429,1952.399Z" style="fill:white;fill-rule:nonzero;"/>
    </g>
</svg>