<?xml version="1.0" standalone="no"?>
<!DOCTYPE svg PUBLIC "-//W3C//DTD SVG 1.1//EN" "http://www.w3.org/Graphics/SVG/1.1/DTD/svg11.dtd">
<svg xmlns="http://www.w3.org/2000/svg" xmlns:xlink="http://www.w3.org/1999/xlink" xmlns:serif="http://www.serif.com/" width="12276" height="11714" viewBox="0 0 12276 11714" version="1.1" xml:space="preserve" style="fill-rule:evenodd;clip-rule:evenodd;stroke-linejoin:round;stroke-miterlimit:2;"><rect x="0" y="0" width="12275.944" height="11713.056" style="fill:#d84a1b;"/><path id="Baum" d="M7672.949,3235.819c501.329,166.097 1005.519,-178.604 1175.187,-646.201c16.255,-44.858 74.31,-193.221 34.304,-223.245c-41.583,-31.168 -336.238,-42.313 -400.566,-37.263c-634.266,49.928 -709.188,542.578 -1104.191,876.153c-240.052,202.729 -559.463,303.236 -813.62,486.436l-221.253,209.436c-17.202,-495.116 393.228,-829.835 656.104,-1195.624c227.624,-316.729 406.84,-723.135 760.279,-917.717c13.315,-7.319 29.353,-11.185 49.671,-10.79c-150.928,120.213 -288.599,289.881 -396.404,450.139c-35.725,53.084 -231.352,364.467 -192.984,404.019c376.697,-25.625 783.596,-278.736 899.43,-649.929c22.666,-72.594 94.628,-520.662 59.14,-546.03c-96.482,-68.924 -428.322,36.1 -533.503,86.737c-430.965,207.483 -482.491,469.313 -669.163,857.709c-122.048,253.9 -415.716,550.587 -602.132,773.555c-26.749,32.036 -97.765,83.443 -110.922,122.798l-3.038,-24.717c-30.438,-330.537 -28.722,-708.991 146.805,-1002.6c190.085,-317.912 579.328,-436.548 760.654,-766.198c139.624,-253.841 182.845,-584.142 97.291,-861.654c-382.99,65.117 -710.845,260.706 -853.171,634.76c-76.618,201.329 -41.82,379.795 -68.352,581.735c-24.638,187.441 -126.329,292.051 -219.201,446.273c-21.127,4.813 -25.033,-13.158 -35.232,-25.25c-271.634,-322.489 -149.862,-551.77 -242.36,-906.552c-88.296,-338.546 -383.681,-614.935 -721.043,-699.976c-144.753,-36.474 -185.173,-48.429 -202.789,127.571c-39.137,391.118 113.842,771.78 415.164,1020.65c125.835,103.919 272.818,162.665 385.377,294.892c89.696,105.418 239.302,379.38 257.411,513.599c26.808,198.547 -14.815,465.802 5.129,670.623c-20.594,-12.664 -35.33,-23.849 -50.539,-35.567c-148.58,-113.901 -636.2,-732.426 -713.054,-904.52c-33.693,-75.493 -48.409,-160.83 -80.701,-236.777c-181.444,-426.487 -613.376,-702.579 -1080.559,-680.545l7.161,384.943c7.93,99.856 62.395,231.412 76.282,264.828c112.441,270.549 525.79,543.564 816.342,559.385c24.5,1.322 58.469,13.453 50.914,-20.555c-65.433,-294.813 -366.223,-588.836 -557.668,-810.523c203.696,93.839 373.798,291.361 502.178,472.746c98.751,139.565 177.499,293.728 277.631,432.898c267.314,371.648 627.895,626.455 656.853,1127.035c1.124,19.865 13.414,77.17 -23.1,68.51l-198.962,-209.279c-224.882,-174.442 -534.273,-264.533 -753.217,-441.026c-278.459,-224.448 -404.512,-570.984 -723.312,-758.169c-263.645,-154.794 -543.86,-184.443 -841.276,-118.024c21.877,282.582 189.335,561.14 417.985,722.799c205.333,145.207 522.831,256.484 760.733,131.142c-160.633,-114.414 -324.028,-229.794 -475.981,-355.432c-15.998,-13.236 -33.851,-25.368 -50.382,-39.256c-89.045,-74.724 -204.307,-167.044 -282.444,-247.804c-17.024,-17.557 -1.657,-18.622 15.347,-15.347c179.294,34.344 644.051,403.17 793.736,536.64c95.22,84.883 177.637,186.08 271.772,272.403c-256.09,103.426 -539.165,66.873 -796.241,171.068c-328.703,133.193 -582.78,529.578 -594.419,879.645c288.007,20.851 558.201,1.558 811.332,-148.698c197.462,-117.195 332.411,-295.957 397.963,-516.499c-332.471,21.798 -648.548,180.774 -899.529,392.854l-22.409,-7.338c102.519,-135.482 238.809,-239.519 382.793,-327.697c489.632,-299.902 1149.109,-319.806 1536.577,161.659c299.192,371.786 336.87,1148.99 -70.325,1455.915c-279.978,211.015 -663.698,74.231 -987.982,145.739c-267.728,59.022 -480.952,294.063 -770.34,265.164c-31.227,25.171 90.426,66.084 104.866,68.885c260.883,50.539 406.228,-116.012 635.628,-167.379c120.825,-27.085 240.486,-34.659 362.928,-7.24c-43.891,51.131 -108.496,75.671 -159.035,120.45c-148.343,131.339 -244.451,335.153 -439.921,421.753l-186.948,62.178c125.875,57.779 266.485,30.339 392.775,-14.933c38.131,53.262 -83.108,238.06 -90.801,294.773c-4.399,32.351 14.519,26.67 34.798,19.49c140.985,-49.731 202.789,-349.869 279.978,-475.922c176.927,-288.993 599.114,-421.871 909.806,-503.48c-40.992,164.677 -119.168,313.474 -249.659,422.936c-199.297,167.162 -325.053,187.343 -458.582,448.482c-55.313,108.18 -104.55,245.122 -100.447,368.195c108.338,-84.745 155.307,-216.577 236.935,-322.39c34.285,-44.464 264.355,-290.789 314.855,-251.868c-74.724,196.101 14.637,437.238 -57.661,630.065l-70.897,140.729c303.335,-114.986 204.426,-470.201 287.987,-724.91c55.846,-170.24 197.403,-329.965 281.556,-489.435l103.051,-221.687c107.983,248.574 86.816,515.947 25.98,774.029c-54.524,231.155 -228.315,532.991 34.521,707.432c-68.885,-222.14 -29.294,-459.746 128.637,-634.681c120.292,120.45 181.484,291.025 174.481,461.6c-2.505,60.284 -25.25,114.157 -23.356,173.041c238.947,-204.13 66.005,-468.544 14.677,-709.937c-56.161,-263.96 -53.459,-544.373 30.694,-801.745c72.179,108.022 105.103,233.68 166.018,347.976c111.652,209.456 223.186,297.219 262.797,553.565c33.141,214.21 -17.478,484.957 259.029,549.64c-161.895,-145.818 -77.92,-336.238 -90.13,-522.003c-5.879,-89.361 -39.118,-174.935 -45.785,-264c65.472,58.035 195.628,127.808 251.612,186.573c59.673,62.671 236.639,382.517 285.107,402.875c30.241,12.704 22.133,-18.543 20.91,-35.981c-14.736,-213.954 -190.953,-494.859 -354.051,-628.763c-72.633,-59.653 -170.338,-103.17 -241.038,-167.123c-117.156,-106.01 -169.155,-246.601 -219.655,-392.459c326.612,76.894 728.283,214.901 913.239,515.138c96.68,156.885 94.746,372.772 288.559,452.211l-83.226,-302.112c136.646,33.476 272.364,80.09 408.003,14.795l-184.403,-64.723c-249.481,-115.834 -359.318,-391.354 -594.222,-524.607c-14.815,-8.384 13.611,-30.339 15.367,-30.339l272.088,0c120.016,0 365.729,162.231 515.592,179.787c93.03,10.928 238.198,13.907 293.136,-73.817c-306.964,11.599 -530.761,-218.491 -828,-268.123c-341.052,-56.99 -667.999,81.885 -969.538,-149.093c-300.79,-230.406 -304.439,-924.68 -149.764,-1235.649c384.963,-773.792 1424.431,-712.403 1954.996,-131.418c18.208,19.944 70.641,76.44 60.363,105.931c-244.885,-203.597 -573.035,-392.932 -899.529,-392.932c59.515,264.986 288.579,439.96 518.926,577.04c48.724,29.018 191.387,93.997 259.621,88.079l423.094,0c77.486,-32.154 -36.967,-300.119 -54.544,-338.31c-71.883,-155.899 -286.587,-403.249 -436.291,-485.864c-270.095,-149.034 -589.448,-125.914 -876.981,-219.142c135.995,-147.87 277.591,-293.116 431.202,-422.7c113.704,-95.891 381.432,-306.432 513.816,-347.936c7.753,-2.426 24.658,-4.143 22.291,7.279l-740.592,612.193l-0.039,-0.079Zm-748.503,-2207.318c13.927,-14.755 96.837,-107.233 113.585,-90.347l-483.556,785.924c-0.69,-264.276 196.575,-511.765 369.971,-695.577Zm-1750.609,-98.238c31.405,5.839 40.834,23.77 57.858,37.954c52.67,43.891 166.314,170.536 211.784,226.598c125.441,154.893 234.548,337.678 233.937,544.373l-503.578,-808.925Z" style="fill:#fff;fill-rule:nonzero;"/><g><path d="M5546.717,7637.85c1.839,0 2.759,1.839 2.759,5.518c0,3.679 -0.92,5.518 -2.759,5.518c-22.686,0 -43.992,9.81 -63.919,29.43c-19.927,19.62 -36.021,45.985 -48.284,79.094l-170.143,454.329c-0.613,2.453 -3.832,3.679 -9.657,3.679c-5.825,0 -9.35,-1.226 -10.576,-3.679l-234.522,-497.555c-10.423,-21.46 -21.153,-37.707 -32.189,-48.744c-11.036,-11.036 -23.605,-16.555 -37.707,-16.555c-1.839,0 -2.759,-1.839 -2.759,-5.518c0,-3.679 0.92,-5.518 2.759,-5.518c7.358,0 13.029,0.307 17.014,0.92c3.985,0.613 9.504,1.073 16.555,1.38c7.051,0.307 18.241,0.46 33.569,0.46c34.335,0 62.233,-0.153 83.692,-0.46c21.46,-0.307 38.934,-0.766 52.423,-1.38c13.489,-0.613 25.138,-0.92 34.948,-0.92c1.839,0 2.759,1.839 2.759,5.518c0,3.679 -0.92,5.518 -2.759,5.518c-26.365,0 -43.839,7.358 -52.423,22.073c-8.584,14.715 -7.051,34.642 4.598,59.78l167.384,356.841l-43.226,75.415l154.509,-408.344c11.036,-30.043 11.803,-55.182 2.299,-75.415c-9.504,-20.233 -29.277,-30.35 -59.32,-30.35c-1.839,0 -2.759,-1.839 -2.759,-5.518c0,-3.679 0.92,-5.518 2.759,-5.518c17.781,0 34.642,0.46 50.583,1.38c15.941,0.92 37.094,1.38 63.459,1.38c17.168,0 31.116,-0.46 41.846,-1.38c10.73,-0.92 23.759,-1.38 39.087,-1.38Z" style="fill:#fff;fill-rule:nonzero;"/><path d="M5688.35,8223.695c-39.853,0 -73.729,-8.277 -101.626,-24.832c-27.897,-16.555 -49.05,-38.474 -63.459,-65.758c-14.409,-27.284 -21.613,-56.561 -21.613,-87.831c0,-36.175 8.89,-68.977 26.671,-98.407c17.781,-29.43 42.306,-53.036 73.576,-70.816c31.27,-17.781 67.138,-26.671 107.604,-26.671c36.175,0 65.145,8.277 86.911,24.832c21.766,16.555 32.649,43.532 32.649,80.933c0,7.971 -0.613,14.715 -1.839,20.233c-1.226,5.518 -3.985,8.277 -8.277,8.277l-88.291,0c1.226,-34.948 -2.146,-62.999 -10.117,-84.152c-7.971,-21.153 -23.299,-31.729 -45.985,-31.729c-24.525,0 -43.992,12.569 -58.401,37.707c-14.409,25.138 -21.613,58.554 -21.613,100.247c0,35.562 5.518,66.218 16.555,91.969c11.036,25.751 27.284,45.678 48.744,59.78c21.46,14.102 47.824,21.153 79.094,21.153c18.394,0 33.875,-2.299 46.445,-6.898c12.569,-4.598 26.518,-10.883 41.846,-18.854c1.226,-1.226 2.912,-0.613 5.058,1.839c2.146,2.453 2.606,4.598 1.38,6.438c-22.686,22.686 -45.831,38.78 -69.437,48.284c-23.605,9.504 -48.897,14.255 -75.875,14.255Zm-125.998,-239.121l-0.92,-17.474l201.413,-3.679l0,20.233l-200.493,0.92Z" style="fill:#fff;fill-rule:nonzero;"/><path d="M6004.725,7963.422l-7.358,-11.956c23.912,-27.591 44.145,-48.744 60.7,-63.459c16.555,-14.715 30.656,-24.985 42.306,-30.81c11.649,-5.825 22.073,-8.737 31.27,-8.737c12.876,0 26.211,4.752 40.007,14.255c13.795,9.504 20.693,21.919 20.693,37.248c0,12.876 -3.832,23.452 -11.496,31.729c-7.664,8.277 -18.241,12.416 -31.729,12.416c-12.876,0 -22.533,-3.372 -28.97,-10.117c-6.438,-6.744 -12.263,-13.336 -17.474,-19.773c-5.212,-6.438 -12.722,-9.657 -22.533,-9.657c-4.292,0 -9.044,1.38 -14.255,4.139c-5.212,2.759 -12.569,8.277 -22.073,16.555c-9.504,8.277 -22.533,21 -39.087,38.167Zm-112.203,249.237c-1.839,0 -2.759,-1.839 -2.759,-5.518c0,-3.679 0.92,-5.518 2.759,-5.518c19.007,0 31.883,-4.445 38.627,-13.336c6.744,-8.89 10.117,-25.598 10.117,-50.123l0,-172.903c0,-19.007 -2.146,-32.956 -6.438,-41.846c-4.292,-8.89 -11.649,-13.336 -22.073,-13.336c-5.518,0 -11.956,1.073 -19.314,3.219c-7.358,2.146 -15.635,5.365 -24.832,9.657c-2.453,1.226 -4.292,0 -5.518,-3.679c-1.226,-3.679 -1.226,-5.825 0,-6.438l127.838,-62.539c3.679,-1.226 5.825,-1.839 6.438,-1.839c6.744,0 13.489,7.358 20.233,22.073c6.744,14.715 10.117,35.868 10.117,63.459l0,204.172c0,15.941 2.453,28.664 7.358,38.167c4.905,9.504 13.336,16.095 25.292,19.773c11.956,3.679 28.357,5.518 49.204,5.518c2.453,0 3.679,1.839 3.679,5.518c0,3.679 -1.226,5.518 -3.679,5.518c-16.555,0 -35.408,-0.307 -56.561,-0.92c-21.153,-0.613 -43.992,-0.92 -68.517,-0.92c-17.168,0 -33.722,0.307 -49.664,0.92c-15.941,0.613 -30.043,0.92 -42.306,0.92Z" style="fill:#fff;fill-rule:nonzero;"/><path d="M6410.31,8223.695c-39.853,0 -73.729,-8.277 -101.626,-24.832c-27.897,-16.555 -49.05,-38.474 -63.459,-65.758c-14.409,-27.284 -21.613,-56.561 -21.613,-87.831c0,-36.175 8.89,-68.977 26.671,-98.407c17.781,-29.43 42.306,-53.036 73.576,-70.816c31.27,-17.781 67.138,-26.671 107.604,-26.671c36.175,0 65.145,8.277 86.911,24.832c21.766,16.555 32.649,43.532 32.649,80.933c0,7.971 -0.613,14.715 -1.839,20.233c-1.226,5.518 -3.985,8.277 -8.277,8.277l-88.291,0c1.226,-34.948 -2.146,-62.999 -10.117,-84.152c-7.971,-21.153 -23.299,-31.729 -45.985,-31.729c-24.525,0 -43.992,12.569 -58.401,37.707c-14.409,25.138 -21.613,58.554 -21.613,100.247c0,35.562 5.518,66.218 16.555,91.969c11.036,25.751 27.284,45.678 48.744,59.78c21.46,14.102 47.824,21.153 79.094,21.153c18.394,0 33.875,-2.299 46.445,-6.898c12.569,-4.598 26.518,-10.883 41.846,-18.854c1.226,-1.226 2.912,-0.613 5.058,1.839c2.146,2.453 2.606,4.598 1.38,6.438c-22.686,22.686 -45.831,38.78 -69.437,48.284c-23.605,9.504 -48.897,14.255 -75.875,14.255Zm-125.998,-239.121l-0.92,-17.474l201.413,-3.679l0,20.233l-200.493,0.92Z" style="fill:#fff;fill-rule:nonzero;"/><path d="M6614.482,8212.659c-1.839,0 -2.759,-1.839 -2.759,-5.518c0,-3.679 0.92,-5.518 2.759,-5.518c19.007,0 31.883,-4.445 38.627,-13.336c6.744,-8.89 10.117,-25.598 10.117,-50.123l0,-164.625c0,-20.233 -1.993,-35.102 -5.978,-44.605c-3.985,-9.504 -11.19,-14.255 -21.613,-14.255c-4.292,0 -9.35,0.92 -15.175,2.759c-5.825,1.839 -12.109,4.292 -18.854,7.358c-2.453,0.613 -4.445,-0.92 -5.978,-4.598c-1.533,-3.679 -1.38,-5.825 0.46,-6.438l138.874,-64.379c1.226,-0.613 2.146,-0.92 2.759,-0.92c3.066,0 6.131,1.533 9.197,4.598c3.066,3.066 4.598,5.825 4.598,8.277c0,7.358 -0.307,19.62 -0.92,36.788c-0.613,17.168 -0.92,41.693 -0.92,73.576l0,166.465c0,24.525 3.525,41.233 10.576,50.123c7.051,8.89 20.08,13.336 39.087,13.336c1.839,0 2.759,1.839 2.759,5.518c0,3.679 -0.92,5.518 -2.759,5.518c-12.263,0 -26.365,-0.307 -42.306,-0.92c-15.941,-0.613 -32.802,-0.92 -50.583,-0.92c-17.168,0 -33.722,0.307 -49.664,0.92c-15.941,0.613 -30.043,0.92 -42.306,0.92Zm88.291,-455.249c-17.168,0 -30.81,-4.905 -40.926,-14.715c-10.117,-9.81 -15.175,-23.605 -15.175,-41.386c0,-15.941 5.058,-28.664 15.175,-38.167c10.117,-9.504 23.759,-14.255 40.926,-14.255c17.168,0 30.35,4.752 39.547,14.255c9.197,9.504 13.795,22.226 13.795,38.167c0,37.401 -17.781,56.101 -53.342,56.101Z" style="fill:#fff;fill-rule:nonzero;"/><path d="M7103.76,8212.659c-1.839,0 -2.759,-1.839 -2.759,-5.518c0,-3.679 0.92,-5.518 2.759,-5.518c19.007,0 31.883,-4.445 38.627,-13.336c6.744,-8.89 10.117,-25.598 10.117,-50.123l0,-132.436c0,-33.109 -5.978,-57.634 -17.934,-73.576c-11.956,-15.941 -30.81,-23.912 -56.561,-23.912c-18.394,0 -37.248,4.598 -56.561,13.795c-19.314,9.197 -34.795,21.766 -46.445,37.707l-4.598,-11.036c21.46,-30.656 45.678,-55.335 72.656,-74.035c26.978,-18.7 56.408,-28.051 88.291,-28.051c34.335,0 60.853,10.73 79.554,32.189c18.7,21.46 28.051,49.05 28.051,82.773l0,176.581c0,24.525 3.525,41.233 10.576,50.123c7.051,8.89 20.08,13.336 39.087,13.336c1.839,0 2.759,1.839 2.759,5.518c0,3.679 -0.92,5.518 -2.759,5.518c-12.263,0 -26.365,-0.307 -42.306,-0.92c-15.941,-0.613 -32.802,-0.92 -50.583,-0.92c-17.168,0 -33.722,0.307 -49.664,0.92c-15.941,0.613 -30.043,0.92 -42.306,0.92Zm-247.398,0c-1.839,0 -2.759,-1.839 -2.759,-5.518c0,-3.679 0.92,-5.518 2.759,-5.518c19.007,0 31.883,-4.445 38.627,-13.336c6.744,-8.89 10.117,-25.598 10.117,-50.123l0,-172.903c0,-19.007 -2.146,-32.956 -6.438,-41.846c-4.292,-8.89 -11.649,-13.336 -22.073,-13.336c-5.518,0 -11.956,1.073 -19.314,3.219c-7.358,2.146 -15.635,5.365 -24.832,9.657c-2.453,1.226 -4.292,0 -5.518,-3.679c-1.226,-3.679 -1.226,-5.825 0,-6.438l127.838,-62.539c3.679,-1.226 5.825,-1.839 6.438,-1.839c6.744,0 13.489,7.358 20.233,22.073c6.744,14.715 10.117,35.868 10.117,63.459l0,204.172c0,24.525 3.525,41.233 10.576,50.123c7.051,8.89 20.08,13.336 39.087,13.336c1.839,0 2.759,1.839 2.759,5.518c0,3.679 -0.92,5.518 -2.759,5.518c-12.263,0 -26.365,-0.307 -42.306,-0.92c-15.941,-0.613 -32.802,-0.92 -50.583,-0.92c-17.168,0 -33.722,0.307 -49.664,0.92c-15.941,0.613 -30.043,0.92 -42.306,0.92Z" style="fill:#fff;fill-rule:nonzero;"/><path d="M791.897,9459.765l18.394,-873.71l53.342,3.679l-20.233,870.031c-1.226,64.992 11.956,116.495 39.547,154.509c27.591,38.014 66.525,57.021 116.801,57.021c3.679,0 5.518,3.679 5.518,11.036c0,7.358 -1.839,11.036 -5.518,11.036c-26.978,0 -54.569,-0.613 -82.773,-1.839c-28.204,-1.226 -60.087,-1.839 -95.648,-1.839c-39.24,0 -74.802,0.613 -106.685,1.839c-31.883,1.226 -61.313,1.839 -88.291,1.839c-3.679,0 -5.518,-3.679 -5.518,-11.036c0,-7.358 1.839,-11.036 5.518,-11.036c50.277,0 90.13,-19.007 119.56,-57.021c29.43,-38.014 44.758,-89.517 45.985,-154.509Zm1317.002,211.53c2.453,0 3.679,3.679 3.679,11.036c0,7.358 -1.226,11.036 -3.679,11.036c-31.883,0 -68.057,-0.613 -108.524,-1.839c-40.467,-1.226 -82.773,-1.839 -126.918,-1.839c-45.372,0 -87.678,0.613 -126.918,1.839c-39.24,1.226 -74.802,1.839 -106.685,1.839c-3.679,0 -5.518,-3.679 -5.518,-11.036c0,-7.358 1.839,-11.036 5.518,-11.036c57.634,0 94.729,-7.971 111.283,-23.912c16.555,-15.941 22.992,-50.277 19.314,-103.006l-42.306,-816.689l93.809,-147.151l-469.044,1099.955c-1.226,4.905 -5.825,7.358 -13.795,7.358c-7.971,0 -13.182,-2.453 -15.635,-7.358l-516.868,-984.073c-46.598,-87.064 -102.393,-130.597 -167.384,-130.597c-3.679,0 -5.518,-3.679 -5.518,-11.036c0,-7.358 1.839,-11.036 5.518,-11.036c25.751,0 52.729,0.613 80.933,1.839c28.204,1.226 52.116,1.839 71.736,1.839c31.883,0 59.78,-0.613 83.692,-1.839c23.912,-1.226 42.613,-1.839 56.101,-1.839c17.168,0 30.35,6.131 39.547,18.394c9.197,12.263 24.219,38.014 45.065,77.254l412.023,772.543l-91.969,165.545l430.417,-987.752c7.358,-17.168 15.022,-29.124 22.992,-35.868c7.971,-6.744 18.7,-10.117 32.189,-10.117c12.263,0 25.138,0.613 38.627,1.839c13.489,1.226 29.43,1.839 47.824,1.839c39.24,0 72.656,-0.613 100.247,-1.839c27.591,-1.226 54.875,-1.839 81.853,-1.839c3.679,0 5.518,3.679 5.518,11.036c0,7.358 -1.839,11.036 -5.518,11.036c-56.408,0 -97.794,11.649 -124.159,34.948c-26.365,23.299 -38.321,59.474 -35.868,108.524l44.145,835.083c2.453,35.562 7.051,62.539 13.795,80.933c6.744,18.394 19.314,30.656 37.707,36.788c18.394,6.131 45.985,9.197 82.773,9.197Z" style="fill:#fff;fill-rule:nonzero;"/><path d="M2585.301,9715.44c-79.707,0 -147.458,-16.555 -203.252,-49.664c-55.795,-33.109 -98.101,-76.948 -126.918,-131.516c-28.817,-54.569 -43.226,-113.122 -43.226,-175.662c0,-72.349 17.781,-137.954 53.342,-196.815c35.562,-58.86 84.612,-106.071 147.151,-141.633c62.539,-35.562 134.275,-53.342 215.209,-53.342c72.349,0 130.29,16.555 173.822,49.664c43.532,33.109 65.298,87.064 65.298,161.866c0,15.941 -1.226,29.43 -3.679,40.467c-2.453,11.036 -7.971,16.555 -16.555,16.555l-176.581,0c2.453,-69.897 -4.292,-125.998 -20.233,-168.304c-15.941,-42.306 -46.598,-63.459 -91.969,-63.459c-49.05,0 -87.984,25.138 -116.801,75.415c-28.817,50.277 -43.226,117.108 -43.226,200.493c0,71.123 11.036,132.436 33.109,183.939c22.073,51.503 54.569,91.356 97.488,119.56c42.919,28.204 95.648,42.306 158.187,42.306c36.788,0 67.751,-4.598 92.889,-13.795c25.138,-9.197 53.036,-21.766 83.692,-37.707c2.453,-2.453 5.825,-1.226 10.117,3.679c4.292,4.905 5.212,9.197 2.759,12.876c-45.372,45.372 -91.663,77.561 -138.874,96.568c-47.211,19.007 -97.794,28.511 -151.75,28.511Zm-251.996,-478.241l-1.839,-34.948l402.826,-7.358l0,40.467l-400.987,1.839Z" style="fill:#fff;fill-rule:nonzero;"/><path d="M3488.441,9693.367c-3.679,0 -5.518,-3.679 -5.518,-11.036c0,-7.358 1.839,-11.036 5.518,-11.036c38.014,0 63.765,-8.89 77.254,-26.671c13.489,-17.781 20.233,-51.196 20.233,-100.247l0,-264.872c0,-66.218 -11.956,-115.268 -35.868,-147.151c-23.912,-31.883 -61.62,-47.824 -113.122,-47.824c-36.788,0 -74.495,9.197 -113.122,27.591c-38.627,18.394 -69.59,43.532 -92.889,75.415l-9.197,-22.073c42.919,-61.313 91.356,-110.67 145.312,-148.071c53.955,-37.401 112.816,-56.101 176.581,-56.101c68.671,0 121.706,21.46 159.107,64.379c37.401,42.919 56.101,98.101 56.101,165.545l0,353.163c0,49.05 7.051,82.466 21.153,100.247c14.102,17.781 40.16,26.671 78.174,26.671c3.679,0 5.518,3.679 5.518,11.036c0,7.358 -1.839,11.036 -5.518,11.036c-24.525,0 -52.729,-0.613 -84.612,-1.839c-31.883,-1.226 -65.605,-1.839 -101.166,-1.839c-34.335,0 -67.444,0.613 -99.327,1.839c-31.883,1.226 -60.087,1.839 -84.612,1.839Zm-494.796,0c-3.679,0 -5.518,-3.679 -5.518,-11.036c0,-7.358 1.839,-11.036 5.518,-11.036c38.014,0 63.765,-8.89 77.254,-26.671c13.489,-17.781 20.233,-51.196 20.233,-100.247l0,-345.805c0,-38.014 -4.292,-65.911 -12.876,-83.692c-8.584,-17.781 -23.299,-26.671 -44.145,-26.671c-11.036,0 -23.912,2.146 -38.627,6.438c-14.715,4.292 -31.27,10.73 -49.664,19.314c-4.905,2.453 -8.584,0 -11.036,-7.358c-2.453,-7.358 -2.453,-11.649 0,-12.876l255.675,-125.078c7.358,-2.453 11.649,-3.679 12.876,-3.679c13.489,0 26.978,14.715 40.467,44.145c13.489,29.43 20.233,71.736 20.233,126.918l0,408.344c0,49.05 7.051,82.466 21.153,100.247c14.102,17.781 40.16,26.671 78.174,26.671c3.679,0 5.518,3.679 5.518,11.036c0,7.358 -1.839,11.036 -5.518,11.036c-24.525,0 -52.729,-0.613 -84.612,-1.839c-31.883,-1.226 -65.605,-1.839 -101.166,-1.839c-34.335,0 -67.444,0.613 -99.327,1.839c-31.883,1.226 -60.087,1.839 -84.612,1.839Z" style="fill:#fff;fill-rule:nonzero;"/><path d="M4106.475,9071.653c0,25.751 7.051,48.744 21.153,68.977c14.102,20.233 32.189,38.627 54.262,55.182c22.073,16.555 45.985,32.802 71.736,48.744c30.656,17.168 60.7,35.255 90.13,54.262c29.43,19.007 53.955,41.999 73.576,68.977c19.62,26.978 29.43,61.926 29.43,104.845c0,39.24 -10.117,77.561 -30.35,114.962c-20.233,37.401 -50.583,67.751 -91.05,91.05c-40.467,23.299 -91.356,34.948 -152.669,34.948c-30.656,0 -61.313,-3.372 -91.969,-10.117c-30.656,-6.744 -63.765,-19.927 -99.327,-39.547c-2.453,-2.453 -4.905,-5.518 -7.358,-9.197c-2.453,-3.679 -3.679,-7.971 -3.679,-12.876l-3.679,-182.1c0,-3.679 3.372,-5.825 10.117,-6.438c6.744,-0.613 10.73,0.307 11.956,2.759c13.489,39.24 32.496,75.722 57.021,109.444c24.525,33.722 52.423,60.7 83.692,80.933c31.27,20.233 62.846,30.35 94.729,30.35c24.525,0 44.758,-7.664 60.7,-22.992c15.941,-15.328 23.912,-38.934 23.912,-70.816c0,-34.335 -7.664,-62.846 -22.992,-85.532c-15.328,-22.686 -34.642,-42.306 -57.941,-58.86c-23.299,-16.555 -47.211,-31.576 -71.736,-45.065c-28.204,-15.941 -56.408,-32.496 -84.612,-49.664c-28.204,-17.168 -51.503,-38.934 -69.897,-65.298c-18.394,-26.365 -27.591,-61.006 -27.591,-103.925c0,-51.503 12.876,-92.583 38.627,-123.239c25.751,-30.656 59.167,-52.729 100.247,-66.218c41.08,-13.489 83.692,-20.233 127.838,-20.233c26.978,0 51.809,1.839 74.495,5.518c22.686,3.679 48.744,11.036 78.174,22.073c11.036,3.679 16.555,10.423 16.555,20.233c0,24.525 -0.613,49.97 -1.839,76.335c-1.226,26.365 -1.839,55.488 -1.839,87.371c0,3.679 -3.679,5.518 -11.036,5.518c-7.358,0 -11.036,-1.839 -11.036,-5.518c0,-23.299 -9.504,-48.437 -28.511,-75.415c-19.007,-26.978 -43.839,-50.583 -74.495,-70.816c-30.656,-20.233 -63.765,-30.35 -99.327,-30.35c-17.168,0 -34.029,4.292 -50.583,12.876c-16.555,8.584 -24.832,28.204 -24.832,58.86Z" style="fill:#fff;fill-rule:nonzero;"/><path d="M4939.719,9715.44c-84.612,0 -154.509,-18.087 -209.69,-54.262c-55.182,-36.175 -95.955,-82.466 -122.319,-138.874c-26.365,-56.408 -39.547,-113.429 -39.547,-171.063c0,-61.313 12.876,-115.882 38.627,-163.706c25.751,-47.824 59.78,-87.984 102.086,-120.48c42.306,-32.496 89.21,-57.328 140.713,-74.495c51.503,-17.168 102.393,-25.751 152.669,-25.751c35.562,0 71.123,5.212 106.685,15.635c35.562,10.423 64.992,25.751 88.291,45.985c23.299,20.233 34.948,45.678 34.948,76.335c0,20.846 -8.584,40.16 -25.751,57.941c-17.168,17.781 -42.306,26.671 -75.415,26.671c-30.656,0 -54.569,-7.971 -71.736,-23.912c-17.168,-15.941 -30.656,-39.24 -40.467,-69.897c-8.584,-29.43 -18.087,-51.809 -28.511,-67.138c-10.423,-15.328 -30.35,-22.992 -59.78,-22.992c-52.729,0 -94.729,26.365 -125.998,79.094c-31.27,52.729 -46.904,121.4 -46.904,206.012c0,61.313 9.197,117.414 27.591,168.304c18.394,50.89 48.437,91.356 90.13,121.4c41.693,30.043 97.488,45.065 167.384,45.065c36.788,0 67.751,-4.292 92.889,-12.876c25.138,-8.584 53.036,-20.233 83.692,-34.948c2.453,-2.453 5.825,-1.226 10.117,3.679c4.292,4.905 5.212,8.584 2.759,11.036c-42.919,39.24 -87.064,69.59 -132.436,91.05c-45.372,21.46 -98.714,32.189 -160.027,32.189Z" style="fill:#fff;fill-rule:nonzero;"/><path d="M5329.669,9693.367c-2.453,0 -3.679,-3.679 -3.679,-11.036c0,-7.358 1.226,-11.036 3.679,-11.036c38.014,0 64.072,-8.89 78.174,-26.671c14.102,-17.781 21.153,-51.196 21.153,-100.247l0,-934.41c0,-41.693 -3.679,-72.043 -11.036,-91.05c-7.358,-19.007 -21.46,-28.511 -42.306,-28.511c-17.168,0 -40.467,6.744 -69.897,20.233c-3.679,1.226 -7.358,-1.839 -11.036,-9.197c-3.679,-7.358 -4.292,-11.649 -1.839,-12.876l268.551,-126.918c2.453,-1.226 4.292,-1.839 5.518,-1.839l3.679,0c6.131,0 12.569,2.759 19.314,8.277c6.744,5.518 10.117,10.73 10.117,15.635l0,1160.654c0,49.05 7.051,82.466 21.153,100.247c14.102,17.781 40.16,26.671 78.174,26.671c4.905,0 7.358,3.679 7.358,11.036c0,7.358 -2.453,11.036 -7.358,11.036c-24.525,0 -52.423,-0.613 -83.692,-1.839c-31.27,-1.226 -64.685,-1.839 -100.247,-1.839c-35.562,0 -69.284,0.613 -101.166,1.839c-31.883,1.226 -60.087,1.839 -84.612,1.839Zm494.796,0c-2.453,0 -3.679,-3.679 -3.679,-11.036c0,-7.358 1.226,-11.036 3.679,-11.036c38.014,0 64.072,-8.89 78.174,-26.671c14.102,-17.781 21.153,-51.196 21.153,-100.247l0,-264.872c0,-129.983 -50.277,-194.975 -150.83,-194.975c-36.788,0 -74.495,9.197 -113.122,27.591c-38.627,18.394 -68.977,43.532 -91.05,75.415l-11.036,-22.073c42.919,-61.313 91.356,-110.67 145.312,-148.071c53.955,-37.401 112.816,-56.101 176.581,-56.101c68.671,0 121.706,21.46 159.107,64.379c37.401,42.919 56.101,98.101 56.101,165.545l0,353.163c0,49.05 7.051,82.466 21.153,100.247c14.102,17.781 40.16,26.671 78.174,26.671c4.905,0 7.358,3.679 7.358,11.036c0,7.358 -2.453,11.036 -7.358,11.036c-24.525,0 -52.423,-0.613 -83.692,-1.839c-31.27,-1.226 -64.685,-1.839 -100.247,-1.839c-35.562,0 -69.284,0.613 -101.166,1.839c-31.883,1.226 -60.087,1.839 -84.612,1.839Z" style="fill:#fff;fill-rule:nonzero;"/><path d="M6291.669,9693.367c-2.453,0 -3.679,-3.679 -3.679,-11.036c0,-7.358 1.226,-11.036 3.679,-11.036c38.014,0 64.072,-8.89 78.174,-26.671c14.102,-17.781 21.153,-51.196 21.153,-100.247l1.839,-934.41c0,-41.693 -3.679,-72.043 -11.036,-91.05c-7.358,-19.007 -21.46,-28.511 -42.306,-28.511c-15.941,0 -39.24,6.744 -69.897,20.233c-3.679,1.226 -7.358,-1.839 -11.036,-9.197c-3.679,-7.358 -4.292,-11.649 -1.839,-12.876l270.39,-126.918c2.453,-1.226 4.905,-1.839 7.358,-1.839c6.131,0 12.876,2.759 20.233,8.277c7.358,5.518 11.036,10.73 11.036,15.635l0,1160.654c0,49.05 6.744,82.466 20.233,100.247c13.489,17.781 39.24,26.671 77.254,26.671c4.905,0 7.358,3.679 7.358,11.036c0,7.358 -2.453,11.036 -7.358,11.036c-23.299,0 -51.196,-0.613 -83.692,-1.839c-32.496,-1.226 -66.525,-1.839 -102.086,-1.839c-35.562,0 -69.284,0.613 -101.166,1.839c-31.883,1.226 -60.087,1.839 -84.612,1.839Z" style="fill:#fff;fill-rule:nonzero;"/><path d="M6791.983,9693.367c-3.679,0 -5.518,-3.679 -5.518,-11.036c0,-7.358 1.839,-11.036 5.518,-11.036c38.014,0 63.765,-8.89 77.254,-26.671c13.489,-17.781 20.233,-51.196 20.233,-100.247l0,-329.251c0,-40.467 -3.985,-70.203 -11.956,-89.21c-7.971,-19.007 -22.379,-28.511 -43.226,-28.511c-8.584,0 -18.7,1.839 -30.35,5.518c-11.649,3.679 -24.219,8.584 -37.707,14.715c-4.905,1.226 -8.89,-1.839 -11.956,-9.197c-3.066,-7.358 -2.759,-11.649 0.92,-12.876l277.748,-128.757c2.453,-1.226 4.292,-1.839 5.518,-1.839c6.131,0 12.263,3.066 18.394,9.197c6.131,6.131 9.197,11.649 9.197,16.555c0,14.715 -0.613,39.24 -1.839,73.576c-1.226,34.335 -1.839,83.386 -1.839,147.151l0,332.929c0,49.05 7.051,82.466 21.153,100.247c14.102,17.781 40.16,26.671 78.174,26.671c3.679,0 5.518,3.679 5.518,11.036c0,7.358 -1.839,11.036 -5.518,11.036c-24.525,0 -52.729,-0.613 -84.612,-1.839c-31.883,-1.226 -65.605,-1.839 -101.166,-1.839c-34.335,0 -67.444,0.613 -99.327,1.839c-31.883,1.226 -60.087,1.839 -84.612,1.839Zm176.581,-910.498c-34.335,0 -61.62,-9.81 -81.853,-29.43c-20.233,-19.62 -30.35,-47.211 -30.35,-82.773c0,-31.883 10.117,-57.328 30.35,-76.335c20.233,-19.007 47.518,-28.511 81.853,-28.511c34.335,0 60.7,9.504 79.094,28.511c18.394,19.007 27.591,44.452 27.591,76.335c0,74.802 -35.562,112.203 -106.685,112.203Z" style="fill:#fff;fill-rule:nonzero;"/><path d="M7634.423,9715.44c-84.612,0 -154.509,-18.087 -209.69,-54.262c-55.182,-36.175 -95.955,-82.466 -122.319,-138.874c-26.365,-56.408 -39.547,-113.429 -39.547,-171.063c0,-61.313 12.876,-115.882 38.627,-163.706c25.751,-47.824 59.78,-87.984 102.086,-120.48c42.306,-32.496 89.21,-57.328 140.713,-74.495c51.503,-17.168 102.393,-25.751 152.669,-25.751c35.562,0 71.123,5.212 106.685,15.635c35.562,10.423 64.992,25.751 88.291,45.985c23.299,20.233 34.948,45.678 34.948,76.335c0,20.846 -8.584,40.16 -25.751,57.941c-17.168,17.781 -42.306,26.671 -75.415,26.671c-30.656,0 -54.569,-7.971 -71.736,-23.912c-17.168,-15.941 -30.656,-39.24 -40.467,-69.897c-8.584,-29.43 -18.087,-51.809 -28.511,-67.138c-10.423,-15.328 -30.35,-22.992 -59.78,-22.992c-52.729,0 -94.729,26.365 -125.998,79.094c-31.27,52.729 -46.904,121.4 -46.904,206.012c0,61.313 9.197,117.414 27.591,168.304c18.394,50.89 48.437,91.356 90.13,121.4c41.693,30.043 97.488,45.065 167.384,45.065c36.788,0 67.751,-4.292 92.889,-12.876c25.138,-8.584 53.036,-20.233 83.692,-34.948c2.453,-2.453 5.825,-1.226 10.117,3.679c4.292,4.905 5.212,8.584 2.759,11.036c-42.919,39.24 -87.064,69.59 -132.436,91.05c-45.372,21.46 -98.714,32.189 -160.027,32.189Z" style="fill:#fff;fill-rule:nonzero;"/><path d="M8024.374,9693.367c-2.453,0 -3.679,-3.679 -3.679,-11.036c0,-7.358 1.226,-11.036 3.679,-11.036c38.014,0 64.072,-8.89 78.174,-26.671c14.102,-17.781 21.153,-51.196 21.153,-100.247l0,-934.41c0,-41.693 -3.679,-72.043 -11.036,-91.05c-7.358,-19.007 -21.46,-28.511 -42.306,-28.511c-17.168,0 -40.467,6.744 -69.897,20.233c-3.679,1.226 -7.358,-1.839 -11.036,-9.197c-3.679,-7.358 -4.292,-11.649 -1.839,-12.876l268.551,-126.918c2.453,-1.226 4.292,-1.839 5.518,-1.839l3.679,0c6.131,0 12.569,2.759 19.314,8.277c6.744,5.518 10.117,10.73 10.117,15.635l0,1160.654c0,49.05 7.051,82.466 21.153,100.247c14.102,17.781 40.16,26.671 78.174,26.671c4.905,0 7.358,3.679 7.358,11.036c0,7.358 -2.453,11.036 -7.358,11.036c-24.525,0 -52.423,-0.613 -83.692,-1.839c-31.27,-1.226 -64.685,-1.839 -100.247,-1.839c-35.562,0 -69.284,0.613 -101.166,1.839c-31.883,1.226 -60.087,1.839 -84.612,1.839Zm494.796,0c-2.453,0 -3.679,-3.679 -3.679,-11.036c0,-7.358 1.226,-11.036 3.679,-11.036c38.014,0 64.072,-8.89 78.174,-26.671c14.102,-17.781 21.153,-51.196 21.153,-100.247l0,-264.872c0,-129.983 -50.277,-194.975 -150.83,-194.975c-36.788,0 -74.495,9.197 -113.122,27.591c-38.627,18.394 -68.977,43.532 -91.05,75.415l-11.036,-22.073c42.919,-61.313 91.356,-110.67 145.312,-148.071c53.955,-37.401 112.816,-56.101 176.581,-56.101c68.671,0 121.706,21.46 159.107,64.379c37.401,42.919 56.101,98.101 56.101,165.545l0,353.163c0,49.05 7.051,82.466 21.153,100.247c14.102,17.781 40.16,26.671 78.174,26.671c4.905,0 7.358,3.679 7.358,11.036c0,7.358 -2.453,11.036 -7.358,11.036c-24.525,0 -52.423,-0.613 -83.692,-1.839c-31.27,-1.226 -64.685,-1.839 -100.247,-1.839c-35.562,0 -69.284,0.613 -101.166,1.839c-31.883,1.226 -60.087,1.839 -84.612,1.839Z" style="fill:#fff;fill-rule:nonzero;"/><path d="M8960.623,9693.367c-2.453,0 -3.679,-3.679 -3.679,-11.036c0,-7.358 1.226,-11.036 3.679,-11.036c38.014,0 64.072,-8.89 78.174,-26.671c14.102,-17.781 21.153,-51.196 21.153,-100.247l0,-934.41c0,-41.693 -3.679,-72.043 -11.036,-91.05c-7.358,-19.007 -21.46,-28.511 -42.306,-28.511c-17.168,0 -40.467,6.744 -69.897,20.233c-3.679,1.226 -7.358,-1.839 -11.036,-9.197c-3.679,-7.358 -4.292,-11.649 -1.839,-12.876l268.551,-126.918c3.679,-1.226 6.744,-1.839 9.197,-1.839c6.131,0 12.569,2.759 19.314,8.277c6.744,5.518 10.117,10.73 10.117,15.635l0,1160.654c0,49.05 7.051,82.466 21.153,100.247c14.102,17.781 40.16,26.671 78.174,26.671c4.905,0 7.358,3.679 7.358,11.036c0,7.358 -2.453,11.036 -7.358,11.036c-24.525,0 -52.423,-0.613 -83.692,-1.839c-31.27,-1.226 -64.685,-1.839 -100.247,-1.839c-35.562,0 -69.284,0.613 -101.166,1.839c-31.883,1.226 -60.087,1.839 -84.612,1.839Zm463.526,0c-3.679,0 -5.518,-3.679 -5.518,-11.036c0,-7.358 1.839,-11.036 5.518,-11.036c33.109,0 53.955,-7.358 62.539,-22.073c8.584,-14.715 4.905,-32.496 -11.036,-53.342l-222.566,-285.105l125.078,-95.648l257.514,329.251c35.562,45.372 69.59,77.867 102.086,97.488c32.496,19.62 65.298,29.43 98.407,29.43c3.679,0 5.518,3.679 5.518,11.036c0,7.358 -1.839,11.036 -5.518,11.036c-24.525,0 -52.729,-0.613 -84.612,-1.839c-31.883,-1.226 -65.605,-1.839 -101.166,-1.839c-49.05,0 -91.663,0.613 -127.838,1.839c-36.175,1.226 -68.977,1.839 -98.407,1.839Zm-259.354,-274.069l-11.036,-29.43l248.318,-239.121c34.335,-31.883 49.97,-64.072 46.904,-96.568c-3.066,-32.496 -26.058,-48.744 -68.977,-48.744c-2.453,0 -3.679,-3.679 -3.679,-11.036c0,-7.358 1.226,-11.036 3.679,-11.036c31.883,0 64.072,0.613 96.568,1.839c32.496,1.226 76.335,1.839 131.516,1.839c50.277,0 90.437,-0.613 120.48,-1.839c30.043,-1.226 58.554,-1.839 85.532,-1.839c3.679,0 5.518,3.679 5.518,11.036c0,7.358 -1.839,11.036 -5.518,11.036c-30.656,0 -67.138,5.212 -109.444,15.635c-42.306,10.423 -85.532,26.978 -129.677,49.664c-44.145,22.686 -85.838,52.423 -125.078,89.21l-285.105,259.354Z" style="fill:#fff;fill-rule:nonzero;"/><path d="M10224.283,9715.44c-79.707,0 -147.458,-16.555 -203.252,-49.664c-55.795,-33.109 -98.101,-76.948 -126.918,-131.516c-28.817,-54.569 -43.226,-113.122 -43.226,-175.662c0,-72.349 17.781,-137.954 53.342,-196.815c35.562,-58.86 84.612,-106.071 147.151,-141.633c62.539,-35.562 134.275,-53.342 215.209,-53.342c72.349,0 130.29,16.555 173.822,49.664c43.532,33.109 65.298,87.064 65.298,161.866c0,15.941 -1.226,29.43 -3.679,40.467c-2.453,11.036 -7.971,16.555 -16.555,16.555l-176.581,0c2.453,-69.897 -4.292,-125.998 -20.233,-168.304c-15.941,-42.306 -46.598,-63.459 -91.969,-63.459c-49.05,0 -87.984,25.138 -116.801,75.415c-28.817,50.277 -43.226,117.108 -43.226,200.493c0,71.123 11.036,132.436 33.109,183.939c22.073,51.503 54.569,91.356 97.488,119.56c42.919,28.204 95.648,42.306 158.187,42.306c36.788,0 67.751,-4.598 92.889,-13.795c25.138,-9.197 53.036,-21.766 83.692,-37.707c2.453,-2.453 5.825,-1.226 10.117,3.679c4.292,4.905 5.212,9.197 2.759,12.876c-45.372,45.372 -91.663,77.561 -138.874,96.568c-47.211,19.007 -97.794,28.511 -151.75,28.511Zm-251.996,-478.241l-1.839,-34.948l402.826,-7.358l0,40.467l-400.987,1.839Z" style="fill:#fff;fill-rule:nonzero;"/><path d="M10632.627,9693.367c-3.679,0 -5.518,-3.679 -5.518,-11.036c0,-7.358 1.839,-11.036 5.518,-11.036c38.014,0 63.765,-8.89 77.254,-26.671c13.489,-17.781 20.233,-51.196 20.233,-100.247l0,-329.251c0,-40.467 -3.985,-70.203 -11.956,-89.21c-7.971,-19.007 -22.379,-28.511 -43.226,-28.511c-8.584,0 -18.7,1.839 -30.35,5.518c-11.649,3.679 -24.219,8.584 -37.707,14.715c-4.905,1.226 -8.89,-1.839 -11.956,-9.197c-3.066,-7.358 -2.759,-11.649 0.92,-12.876l277.748,-128.757c2.453,-1.226 4.292,-1.839 5.518,-1.839c6.131,0 12.263,3.066 18.394,9.197c6.131,6.131 9.197,11.649 9.197,16.555c0,14.715 -0.613,39.24 -1.839,73.576c-1.226,34.335 -1.839,83.386 -1.839,147.151l0,332.929c0,49.05 7.051,82.466 21.153,100.247c14.102,17.781 40.16,26.671 78.174,26.671c3.679,0 5.518,3.679 5.518,11.036c0,7.358 -1.839,11.036 -5.518,11.036c-24.525,0 -52.729,-0.613 -84.612,-1.839c-31.883,-1.226 -65.605,-1.839 -101.166,-1.839c-34.335,0 -67.444,0.613 -99.327,1.839c-31.883,1.226 -60.087,1.839 -84.612,1.839Zm176.581,-910.498c-34.335,0 -61.62,-9.81 -81.853,-29.43c-20.233,-19.62 -30.35,-47.211 -30.35,-82.773c0,-31.883 10.117,-57.328 30.35,-76.335c20.233,-19.007 47.518,-28.511 81.853,-28.511c34.335,0 60.7,9.504 79.094,28.511c18.394,19.007 27.591,44.452 27.591,76.335c-0,74.802 -35.562,112.203 -106.685,112.203Z" style="fill:#fff;fill-rule:nonzero;"/><path d="M11383.098,9715.44c-29.43,0 -59.167,-4.905 -89.21,-14.715c-30.043,-9.81 -55.182,-26.978 -75.415,-51.503c-20.233,-24.525 -30.35,-58.86 -30.35,-103.006l0,-408.344c0,-25.751 -3.066,-45.985 -9.197,-60.7c-6.131,-14.715 -15.941,-25.138 -29.43,-31.27c-13.489,-6.131 -31.883,-9.197 -55.182,-9.197c-4.905,0 -7.358,-5.518 -7.358,-16.555c0,-11.036 2.453,-16.555 7.358,-16.555c62.539,-2.453 113.429,-16.248 152.669,-41.386c39.24,-25.138 68.671,-62.233 88.291,-111.283c2.453,-4.905 7.664,-7.358 15.635,-7.358c7.971,0 11.956,2.453 11.956,7.358l0,634.589c0,49.05 12.569,83.999 37.707,104.845c25.138,20.846 56.101,31.27 92.889,31.27c28.204,0 54.875,-5.825 80.013,-17.474c25.138,-11.649 46.291,-24.219 63.459,-37.707c3.679,-3.679 8.277,-2.759 13.795,2.759c5.518,5.518 5.825,10.117 0.92,13.795c-45.372,45.372 -89.21,78.787 -131.516,100.247c-42.306,21.46 -87.984,32.189 -137.034,32.189Zm211.53,-638.268c-50.277,-11.036 -99.02,-18.7 -146.231,-22.992c-47.211,-4.292 -97.181,-6.438 -149.91,-6.438l0,-47.824c50.277,0 99.634,-1.839 148.071,-5.518c48.437,-3.679 100.247,-7.971 155.428,-12.876c2.453,0 5.212,4.598 8.277,13.795c3.066,9.197 4.598,19.314 4.598,30.35c0,12.263 -2.146,24.219 -6.438,35.868c-4.292,11.649 -8.89,16.861 -13.795,15.635Z" style="fill:#fff;fill-rule:nonzero;"/><path d="M3314.388,11092.222c-77.254,0 -147.266,-13.68 -210.035,-41.041c-62.769,-27.361 -116.418,-65.183 -160.947,-113.467c-44.529,-48.284 -78.864,-103.811 -103.006,-166.58c-24.142,-62.769 -36.213,-129.562 -36.213,-200.378c0,-86.911 16.899,-163.092 50.698,-228.544c33.799,-65.452 78.596,-119.905 134.39,-163.361c55.795,-43.456 116.954,-75.913 183.479,-97.373c66.525,-21.46 132.513,-32.189 197.964,-32.189c79.4,0 150.485,14.217 213.254,42.651c62.769,28.434 116.15,66.793 160.142,115.077c43.992,48.284 77.523,103.006 100.592,164.165c23.069,61.16 34.604,123.929 34.604,188.307c0,75.108 -15.022,144.852 -45.065,209.23c-30.043,64.379 -71.085,120.71 -123.124,168.994c-52.039,48.284 -112.126,86.106 -180.26,113.467c-68.134,27.361 -140.292,41.041 -216.473,41.041Zm53.112,-40.237c60.087,0 113.736,-17.168 160.947,-51.503c47.211,-34.335 84.497,-84.765 111.858,-151.29c27.361,-66.525 41.041,-147.534 41.041,-243.029c0,-98.714 -15.022,-186.698 -45.065,-263.952c-30.043,-77.254 -72.962,-138.146 -128.757,-182.674c-55.795,-44.529 -122.856,-66.793 -201.183,-66.793c-97.641,0 -172.749,37.018 -225.325,111.053c-52.576,74.035 -78.864,176.505 -78.864,307.408c0,78.327 9.12,150.485 27.361,216.473c18.241,65.988 43.724,123.392 76.45,172.213c32.726,48.82 71.353,86.375 115.882,112.663c44.529,26.288 93.081,39.432 145.657,39.432Zm-156.118,-1110.531c-26.824,0 -48.284,-7.779 -64.379,-23.337c-16.095,-15.558 -24.142,-37.286 -24.142,-65.183c0,-25.751 8.047,-46.138 24.142,-61.16c16.095,-15.022 37.554,-22.533 64.379,-22.533c26.824,0 47.479,7.511 61.964,22.533c14.485,15.022 21.728,35.408 21.728,61.16c0,59.014 -27.897,88.521 -83.692,88.521Zm280.047,0c-26.824,0 -48.016,-7.779 -63.574,-23.337c-15.558,-15.558 -23.337,-37.286 -23.337,-65.183c0,-25.751 7.779,-45.87 23.337,-60.355c15.558,-14.485 36.749,-21.728 63.574,-21.728c55.795,0 83.692,27.361 83.692,82.083c0,59.014 -27.897,88.521 -83.692,88.521Z" style="fill:#fff;fill-rule:nonzero;"/><path d="M4148.092,10528.909c0,22.533 6.17,42.651 18.509,60.355c12.339,17.704 28.166,33.799 47.479,48.284c19.314,14.485 40.237,28.702 62.769,42.651c26.824,15.022 53.112,30.848 78.864,47.479c25.751,16.631 47.211,36.749 64.379,60.355c17.168,23.605 25.751,54.185 25.751,91.74c0,34.335 -8.852,67.866 -26.556,100.592c-17.704,32.726 -44.26,59.282 -79.669,79.669c-35.408,20.387 -79.937,30.58 -133.586,30.58c-26.824,0 -53.649,-2.951 -80.473,-8.852c-26.824,-5.901 -55.795,-17.436 -86.911,-34.604c-2.146,-2.146 -4.292,-4.828 -6.438,-8.047c-2.146,-3.219 -3.219,-6.974 -3.219,-11.266l-3.219,-159.337c0,-3.219 2.951,-5.097 8.852,-5.633c5.901,-0.536 9.389,0.268 10.462,2.414c11.803,34.335 28.434,66.256 49.893,95.763c21.46,29.507 45.87,53.112 73.231,70.816c27.361,17.704 54.99,26.556 82.887,26.556c21.46,0 39.164,-6.706 53.112,-20.118c13.949,-13.412 20.923,-34.067 20.923,-61.964c0,-30.043 -6.706,-54.99 -20.118,-74.84c-13.412,-19.85 -30.312,-37.018 -50.698,-51.503c-20.387,-14.485 -41.31,-27.629 -62.769,-39.432c-24.678,-13.949 -49.357,-28.434 -74.035,-43.456c-24.678,-15.022 -45.065,-34.067 -61.16,-57.136c-16.095,-23.069 -24.142,-53.381 -24.142,-90.935c0,-45.065 11.266,-81.01 33.799,-107.834c22.533,-26.824 51.771,-46.138 87.716,-57.941c35.945,-11.803 73.231,-17.704 111.858,-17.704c23.605,0 45.333,1.609 65.183,4.828c19.85,3.219 42.651,9.657 68.402,19.314c9.657,3.219 14.485,9.12 14.485,17.704c0,21.46 -0.536,43.724 -1.609,66.793c-1.073,23.069 -1.609,48.552 -1.609,76.45c0,3.219 -3.219,4.828 -9.657,4.828c-6.438,0 -9.657,-1.609 -9.657,-4.828c0,-20.387 -8.316,-42.383 -24.947,-65.988c-16.631,-23.605 -38.359,-44.26 -65.183,-61.964c-26.824,-17.704 -55.795,-26.556 -86.911,-26.556c-15.022,0 -29.775,3.755 -44.26,11.266c-14.485,7.511 -21.728,24.678 -21.728,51.503Z" style="fill:#fff;fill-rule:nonzero;"/><path d="M4796.706,11092.222c-25.751,0 -51.771,-4.292 -78.059,-12.876c-26.288,-8.584 -48.284,-23.605 -65.988,-45.065c-17.704,-21.46 -26.556,-51.503 -26.556,-90.13l0,-357.301c0,-22.533 -2.682,-40.237 -8.047,-53.112c-5.365,-12.876 -13.949,-21.996 -25.751,-27.361c-11.803,-5.365 -27.897,-8.047 -48.284,-8.047c-4.292,0 -6.438,-4.828 -6.438,-14.485c0,-9.657 2.146,-14.485 6.438,-14.485c54.722,-2.146 99.25,-14.217 133.586,-36.213c34.335,-21.996 60.087,-54.454 77.254,-97.373c2.146,-4.292 6.706,-6.438 13.68,-6.438c6.974,0 10.462,2.146 10.462,6.438l0,555.266c0,42.919 10.998,73.499 32.994,91.74c21.996,18.241 49.089,27.361 81.278,27.361c24.678,0 48.016,-5.097 70.012,-15.29c21.996,-10.193 40.505,-21.191 55.527,-32.994c3.219,-3.219 7.243,-2.414 12.071,2.414c4.828,4.828 5.097,8.852 0.805,12.071c-39.7,39.7 -78.059,68.939 -115.077,87.716c-37.018,18.777 -76.986,28.166 -119.905,28.166Zm185.089,-558.484c-43.992,-9.657 -86.643,-16.363 -127.952,-20.118c-41.31,-3.755 -85.033,-5.633 -131.171,-5.633l0,-41.846c43.992,0 87.179,-1.609 129.562,-4.828c42.383,-3.219 87.716,-6.974 136,-11.266c2.146,0 4.56,4.024 7.243,12.071c2.682,8.047 4.024,16.899 4.024,26.556c0,10.73 -1.878,21.191 -5.633,31.385c-3.755,10.193 -7.779,14.753 -12.071,13.68Z" style="fill:#fff;fill-rule:nonzero;"/><path d="M5419.569,11092.222c-69.743,0 -129.025,-14.485 -177.846,-43.456c-48.82,-28.97 -85.838,-67.329 -111.053,-115.077c-25.215,-47.747 -37.822,-98.982 -37.822,-153.704c0,-63.306 15.558,-120.71 46.674,-172.213c31.116,-51.503 74.035,-92.812 128.757,-123.929c54.722,-31.116 117.491,-46.674 188.307,-46.674c63.306,0 114.004,14.485 152.094,43.456c38.091,28.97 57.136,76.181 57.136,141.633c0,13.949 -1.073,25.751 -3.219,35.408c-2.146,9.657 -6.974,14.485 -14.485,14.485l-154.509,0c2.146,-61.16 -3.755,-110.248 -17.704,-147.266c-13.949,-37.018 -40.773,-55.527 -80.473,-55.527c-42.919,0 -76.986,21.996 -102.201,65.988c-25.215,43.992 -37.822,102.469 -37.822,175.432c0,62.233 9.657,115.882 28.97,160.947c19.314,45.065 47.747,79.937 85.302,104.615c37.554,24.678 83.692,37.018 138.414,37.018c32.189,0 59.282,-4.024 81.278,-12.071c21.996,-8.047 46.406,-19.045 73.231,-32.994c2.146,-2.146 5.097,-1.073 8.852,3.219c3.755,4.292 4.56,8.047 2.414,11.266c-39.7,39.7 -80.205,67.866 -121.515,84.497c-41.31,16.631 -85.57,24.947 -132.781,24.947Zm-220.497,-418.461l-1.609,-30.58l352.473,-6.438l0,35.408l-350.863,1.609Z" style="fill:#fff;fill-rule:nonzero;"/><path d="M5973.225,10636.744l-12.876,-20.923c41.846,-48.284 77.254,-85.302 106.225,-111.053c28.97,-25.751 53.649,-43.724 74.035,-53.917c20.387,-10.193 38.627,-15.29 54.722,-15.29c22.533,0 45.87,8.316 70.012,24.947c24.142,16.631 36.213,38.359 36.213,65.183c0,22.533 -6.706,41.041 -20.118,55.527c-13.412,14.485 -31.921,21.728 -55.527,21.728c-22.533,0 -39.432,-5.901 -50.698,-17.704c-11.266,-11.803 -21.46,-23.337 -30.58,-34.604c-9.12,-11.266 -22.264,-16.899 -39.432,-16.899c-7.511,0 -15.826,2.414 -24.947,7.243c-9.12,4.828 -21.996,14.485 -38.627,28.97c-16.631,14.485 -39.432,36.749 -68.402,66.793Zm-196.355,436.165c-3.219,0 -4.828,-3.219 -4.828,-9.657c0,-6.438 1.609,-9.657 4.828,-9.657c33.262,0 55.795,-7.779 67.598,-23.337c11.803,-15.558 17.704,-44.797 17.704,-87.716l0,-302.579c0,-33.262 -3.755,-57.673 -11.266,-73.231c-7.511,-15.558 -20.387,-23.337 -38.627,-23.337c-9.657,0 -20.923,1.878 -33.799,5.633c-12.876,3.755 -27.361,9.389 -43.456,16.899c-4.292,2.146 -7.511,0 -9.657,-6.438c-2.146,-6.438 -2.146,-10.193 0,-11.266l223.716,-109.444c6.438,-2.146 10.193,-3.219 11.266,-3.219c11.803,0 23.605,12.876 35.408,38.627c11.803,25.751 17.704,62.769 17.704,111.053l0,357.301c0,27.897 4.292,50.162 12.876,66.793c8.584,16.631 23.337,28.166 44.26,34.604c20.923,6.438 49.625,9.657 86.106,9.657c4.292,0 6.438,3.219 6.438,9.657c0,6.438 -2.146,9.657 -6.438,9.657c-28.97,0 -61.964,-0.536 -98.982,-1.609c-37.018,-1.073 -76.986,-1.609 -119.905,-1.609c-30.043,0 -59.014,0.536 -86.911,1.609c-27.897,1.073 -52.576,1.609 -74.035,1.609Z" style="fill:#fff;fill-rule:nonzero;"/><path d="M6583.213,10636.744l-12.876,-20.923c41.846,-48.284 77.254,-85.302 106.225,-111.053c28.97,-25.751 53.649,-43.724 74.035,-53.917c20.387,-10.193 38.627,-15.29 54.722,-15.29c22.533,0 45.87,8.316 70.012,24.947c24.142,16.631 36.213,38.359 36.213,65.183c0,22.533 -6.706,41.041 -20.118,55.527c-13.412,14.485 -31.921,21.728 -55.527,21.728c-22.533,0 -39.432,-5.901 -50.698,-17.704c-11.266,-11.803 -21.46,-23.337 -30.58,-34.604c-9.12,-11.266 -22.264,-16.899 -39.432,-16.899c-7.511,0 -15.826,2.414 -24.947,7.243c-9.12,4.828 -21.996,14.485 -38.627,28.97c-16.631,14.485 -39.432,36.749 -68.402,66.793Zm-196.355,436.165c-3.219,0 -4.828,-3.219 -4.828,-9.657c0,-6.438 1.609,-9.657 4.828,-9.657c33.262,0 55.795,-7.779 67.598,-23.337c11.803,-15.558 17.704,-44.797 17.704,-87.716l0,-302.579c0,-33.262 -3.755,-57.673 -11.266,-73.231c-7.511,-15.558 -20.387,-23.337 -38.627,-23.337c-9.657,0 -20.923,1.878 -33.799,5.633c-12.876,3.755 -27.361,9.389 -43.456,16.899c-4.292,2.146 -7.511,0 -9.657,-6.438c-2.146,-6.438 -2.146,-10.193 0,-11.266l223.716,-109.444c6.438,-2.146 10.193,-3.219 11.266,-3.219c11.803,0 23.605,12.876 35.408,38.627c11.803,25.751 17.704,62.769 17.704,111.053l0,357.301c0,27.897 4.292,50.162 12.876,66.793c8.584,16.631 23.337,28.166 44.26,34.604c20.923,6.438 49.625,9.657 86.106,9.657c4.292,0 6.438,3.219 6.438,9.657c0,6.438 -2.146,9.657 -6.438,9.657c-28.97,0 -61.964,-0.536 -98.982,-1.609c-37.018,-1.073 -76.986,-1.609 -119.905,-1.609c-30.043,0 -59.014,0.536 -86.911,1.609c-27.897,1.073 -52.576,1.609 -74.035,1.609Z" style="fill:#fff;fill-rule:nonzero;"/><path d="M7292.987,11092.222c-69.743,0 -129.025,-14.485 -177.846,-43.456c-48.82,-28.97 -85.838,-67.329 -111.053,-115.077c-25.215,-47.747 -37.822,-98.982 -37.822,-153.704c0,-63.306 15.558,-120.71 46.674,-172.213c31.116,-51.503 74.035,-92.812 128.757,-123.929c54.722,-31.116 117.491,-46.674 188.307,-46.674c63.306,0 114.004,14.485 152.094,43.456c38.091,28.97 57.136,76.181 57.136,141.633c0,13.949 -1.073,25.751 -3.219,35.408c-2.146,9.657 -6.974,14.485 -14.485,14.485l-154.509,0c2.146,-61.16 -3.755,-110.248 -17.704,-147.266c-13.949,-37.018 -40.773,-55.527 -80.473,-55.527c-42.919,0 -76.986,21.996 -102.201,65.988c-25.215,43.992 -37.822,102.469 -37.822,175.432c0,62.233 9.657,115.882 28.97,160.947c19.314,45.065 47.747,79.937 85.302,104.615c37.554,24.678 83.692,37.018 138.414,37.018c32.189,0 59.282,-4.024 81.278,-12.071c21.996,-8.047 46.406,-19.045 73.231,-32.994c2.146,-2.146 5.097,-1.073 8.852,3.219c3.755,4.292 4.56,8.047 2.414,11.266c-39.7,39.7 -80.205,67.866 -121.515,84.497c-41.31,16.631 -85.57,24.947 -132.781,24.947Zm-220.497,-418.461l-1.609,-30.58l352.473,-6.438l0,35.408l-350.863,1.609Z" style="fill:#fff;fill-rule:nonzero;"/><path d="M7650.288,11072.909c-3.219,0 -4.828,-3.219 -4.828,-9.657c0,-6.438 1.609,-9.657 4.828,-9.657c33.262,0 55.795,-7.779 67.598,-23.337c11.803,-15.558 17.704,-44.797 17.704,-87.716l0,-288.094c0,-35.408 -3.487,-61.428 -10.462,-78.059c-6.974,-16.631 -19.582,-24.947 -37.822,-24.947c-7.511,0 -16.363,1.609 -26.556,4.828c-10.193,3.219 -21.191,7.511 -32.994,12.876c-4.292,1.073 -7.779,-1.609 -10.462,-8.047c-2.682,-6.438 -2.414,-10.193 0.805,-11.266l243.029,-112.663c2.146,-1.073 3.755,-1.609 4.828,-1.609c5.365,0 10.73,2.682 16.095,8.047c5.365,5.365 8.047,10.193 8.047,14.485c0,12.876 -0.536,34.335 -1.609,64.379c-1.073,30.043 -1.609,72.962 -1.609,128.757l0,291.313c0,42.919 6.17,72.158 18.509,87.716c12.339,15.558 35.14,23.337 68.402,23.337c3.219,0 4.828,3.219 4.828,9.657c0,6.438 -1.609,9.657 -4.828,9.657c-21.46,0 -46.138,-0.536 -74.035,-1.609c-27.897,-1.073 -57.404,-1.609 -88.521,-1.609c-30.043,0 -59.014,0.536 -86.911,1.609c-27.897,1.073 -52.576,1.609 -74.035,1.609Zm154.509,-796.685c-30.043,0 -53.917,-8.584 -71.621,-25.751c-17.704,-17.168 -26.556,-41.31 -26.556,-72.426c0,-27.897 8.852,-50.162 26.556,-66.793c17.704,-16.631 41.578,-24.947 71.621,-24.947c30.043,0 53.112,8.316 69.207,24.947c16.095,16.631 24.142,38.895 24.142,66.793c0,65.452 -31.116,98.177 -93.349,98.177Z" style="fill:#fff;fill-rule:nonzero;"/><path d="M8387.423,11092.222c-74.035,0 -135.195,-15.826 -183.479,-47.479c-48.284,-31.653 -83.96,-72.158 -107.029,-121.515c-23.069,-49.357 -34.604,-99.25 -34.604,-149.68c0,-53.649 11.266,-101.396 33.799,-143.242c22.533,-41.846 52.308,-76.986 89.325,-105.42c37.018,-28.434 78.059,-50.162 123.124,-65.183c45.065,-15.022 89.594,-22.533 133.586,-22.533c31.116,0 62.233,4.56 93.349,13.68c31.116,9.12 56.868,22.533 77.254,40.237c20.387,17.704 30.58,39.968 30.58,66.793c0,18.241 -7.511,35.14 -22.533,50.698c-15.022,15.558 -37.018,23.337 -65.988,23.337c-26.824,0 -47.747,-6.974 -62.769,-20.923c-15.022,-13.949 -26.824,-34.335 -35.408,-61.16c-7.511,-25.751 -15.826,-45.333 -24.947,-58.745c-9.12,-13.412 -26.556,-20.118 -52.308,-20.118c-46.138,0 -82.887,23.069 -110.248,69.207c-27.361,46.138 -41.041,106.225 -41.041,180.26c0,53.649 8.047,102.738 24.142,147.266c16.095,44.529 42.383,79.937 78.864,106.225c36.481,26.288 85.302,39.432 146.461,39.432c32.189,0 59.282,-3.755 81.278,-11.266c21.996,-7.511 46.406,-17.704 73.231,-30.58c2.146,-2.146 5.097,-1.073 8.852,3.219c3.755,4.292 4.56,7.511 2.414,9.657c-37.554,34.335 -76.181,60.891 -115.882,79.669c-39.7,18.777 -86.375,28.166 -140.023,28.166Z" style="fill:#fff;fill-rule:nonzero;"/><path d="M8728.63,11072.909c-2.146,0 -3.219,-3.219 -3.219,-9.657c0,-6.438 1.073,-9.657 3.219,-9.657c33.262,0 56.063,-7.779 68.402,-23.337c12.339,-15.558 18.509,-44.797 18.509,-87.716l0,-817.608c0,-36.481 -3.219,-63.037 -9.657,-79.669c-6.438,-16.631 -18.777,-24.947 -37.018,-24.947c-15.022,0 -35.408,5.901 -61.16,17.704c-3.219,1.073 -6.438,-1.609 -9.657,-8.047c-3.219,-6.438 -3.755,-10.193 -1.609,-11.266l234.982,-111.053c2.146,-1.073 3.755,-1.609 4.828,-1.609l3.219,0c5.365,0 10.998,2.414 16.899,7.243c5.901,4.828 8.852,9.389 8.852,13.68l0,1015.573c0,42.919 6.17,72.158 18.509,87.716c12.339,15.558 35.14,23.337 68.402,23.337c4.292,0 6.438,3.219 6.438,9.657c0,6.438 -2.146,9.657 -6.438,9.657c-21.46,0 -45.87,-0.536 -73.231,-1.609c-27.361,-1.073 -56.6,-1.609 -87.716,-1.609c-31.116,0 -60.623,0.536 -88.521,1.609c-27.897,1.073 -52.576,1.609 -74.035,1.609Zm432.946,0c-2.146,0 -3.219,-3.219 -3.219,-9.657c0,-6.438 1.073,-9.657 3.219,-9.657c33.262,0 56.063,-7.779 68.402,-23.337c12.339,-15.558 18.509,-44.797 18.509,-87.716l0,-231.763c0,-113.736 -43.992,-170.603 -131.976,-170.603c-32.189,0 -65.183,8.047 -98.982,24.142c-33.799,16.095 -60.355,38.091 -79.669,65.988l-9.657,-19.314c37.554,-53.649 79.937,-96.836 127.148,-129.562c47.211,-32.726 98.714,-49.089 154.509,-49.089c60.087,0 106.493,18.777 139.219,56.331c32.726,37.554 49.089,85.838 49.089,144.852l0,309.017c0,42.919 6.17,72.158 18.509,87.716c12.339,15.558 35.14,23.337 68.402,23.337c4.292,0 6.438,3.219 6.438,9.657c0,6.438 -2.146,9.657 -6.438,9.657c-21.46,0 -45.87,-0.536 -73.231,-1.609c-27.361,-1.073 -56.6,-1.609 -87.716,-1.609c-31.116,0 -60.623,0.536 -88.521,1.609c-27.897,1.073 -52.576,1.609 -74.035,1.609Z" style="fill:#fff;fill-rule:nonzero;"/></g></svg>